/* XPM */
static char *_672f5abe1c2470ab3c67163cff4a7c1iCVAKONF2u7epPB1[] = {
/* columns rows colors chars-per-pixel */
"64 64 166 2 ",
"   c #060505",
".  c #090807",
"X  c #0D0C0B",
"o  c #110F0E",
"O  c #180E09",
"+  c #13100F",
"@  c #1A140F",
"#  c #151312",
"$  c #191615",
"%  c #1B1917",
"&  c #1D1B1A",
"*  c #201C17",
"=  c #211E1B",
"-  c #25221F",
";  c #2B241F",
":  c #2F291E",
">  c #32271D",
",  c #35281B",
"<  c #1F2020",
"1  c #262422",
"2  c #2A2523",
"3  c #2D2A26",
"4  c #2E2B29",
"5  c #332B26",
"6  c #392C26",
"7  c #332D2B",
"8  c #392F2B",
"9  c #34312D",
"0  c #3A342D",
"q  c #39382F",
"w  c #363331",
"e  c #3B3632",
"r  c #3D3935",
"t  c #373838",
"y  c #3D3B3A",
"u  c #402A13",
"i  c #453D2D",
"p  c #403735",
"a  c #423B36",
"s  c #493E34",
"d  c #443E3A",
"f  c #493F3B",
"g  c #503C36",
"h  c #4F4629",
"j  c #464137",
"k  c #46413D",
"l  c #4B443D",
"z  c #544336",
"x  c #50473D",
"c  c #544A3E",
"v  c #3F4040",
"b  c #464442",
"n  c #4A4642",
"m  c #4D4945",
"M  c #4E4C49",
"N  c #524642",
"B  c #534B46",
"V  c #5A4C47",
"C  c #524E4A",
"Z  c #5A4E4A",
"A  c #565147",
"S  c #5C5045",
"D  c #54514D",
"F  c #5A534D",
"G  c #5F594F",
"H  c #565451",
"J  c #595652",
"K  c #5C5A55",
"L  c #5E5C59",
"P  c #615751",
"I  c #625C55",
"U  c #695E55",
"Y  c #625E5A",
"T  c #6A5C5A",
"R  c #666057",
"E  c #686257",
"W  c #65625D",
"Q  c #6A645D",
"!  c #6D685E",
"~  c #70655E",
"^  c #74695E",
"/  c #666461",
"(  c #6A6661",
")  c #6A6965",
"_  c #6B6864",
"`  c #6D6864",
"'  c #6D6964",
"]  c #6D6965",
"[  c #6F6964",
"{  c #6C6A64",
"}  c #6D6A64",
"|  c #6C6B65",
" . c #6E6A64",
".. c #6F6A65",
"X. c #6F6B65",
"o. c #6C6866",
"O. c #6D6966",
"+. c #6E6A66",
"@. c #6F6C66",
"#. c #6D6964",
"$. c #6E6C69",
"%. c #706762",
"&. c #776A61",
"*. c #706965",
"=. c #736A65",
"-. c #726B65",
";. c #706B66",
":. c #706B67",
">. c #726B66",
",. c #736B66",
"<. c #716C64",
"1. c #716E65",
"2. c #706C66",
"3. c #706D66",
"4. c #706D67",
"5. c #726C67",
"6. c #726D67",
"7. c #736D67",
"8. c #756E67",
"9. c #726C65",
"0. c #706D68",
"q. c #716D68",
"w. c #716D69",
"e. c #726D68",
"r. c #726E68",
"t. c #726E69",
"y. c #716E6A",
"u. c #726E69",
"i. c #777166",
"p. c #7A7267",
"a. c #757169",
"s. c #767168",
"d. c #75716B",
"f. c #77716B",
"g. c #75736B",
"h. c #74716C",
"j. c #77726D",
"k. c #77736F",
"l. c #75716B",
"z. c #7A746A",
"x. c #78706C",
"c. c #78736D",
"v. c #78726C",
"b. c #7A726C",
"n. c #79736F",
"m. c #79746E",
"M. c #79756F",
"N. c #7C766E",
"B. c #7A746D",
"V. c #7F796F",
"C. c #797570",
"Z. c #7A7670",
"A. c #7C7570",
"S. c #7C7772",
"D. c #7A7671",
"F. c #7D7970",
"G. c #7D7974",
"H. c #81796E",
"J. c #817B75",
"K. c #807A74",
"L. c #827E78",
"P. c #87837C",
"I. c #89837B",
"U. c #8C8780",
"Y. c #8E8A83",
"T. c #918C87",
/* pixels */
"X # & < ; = = 1 - 1 - = = $ % $ # + + $ % $ # + + $ % # # # + X X X o o o # ; 7 e - = * # = - = $ o X # # # $ ; = * $ = 8 = o o ",
"% 1 v f Z S N N N N V Z T Z C C A m m F J l l m r r k r a n j d d d k Z C Z Z C ;.l.=.%.T T T J T F J Q ! ~ Q ~ =.T Q ~ &.U N 1 ",
"$ & 2 e m K Z H Z B m D C 7.C Z K D H L @.W J D n D R ) Q I J 1._ / n.x.;.=.F.n.J.U.P./ Y C.J.n.;.Y Y I ( _ e.$.C.b.l._ t.P k 2 ",
"# f P l.e.S.J.b.l.T.C.u.x.b./ / ! R | | d._ W K L L W 1.' M.@.! ! Q =.! ( 1.5.d.t.C.l.G.` t./ / W W ` W _ 8.C.C.Y b.t.Q 5.d.P e ",
"% n Q H.' _ ` _ t.k./ _ 8.u.t.e.| W | | L W H W J W W g.) W H M H W W / _ R / ` Y L / $.) L J J K $.o.) / / / ` Y N.` _ t.i.Y d ",
"3 B J ' G.u.` d.W / $./ Y / / _ W L L / / L Y / W W W ) ) ) L L H K K H D J J Y Y L L $.$.K H K K Y Y J L K K D Y 5.W _ t._ J l ",
"e U ! 1.W J ' _ / W _ L K _ _ W W H H L W L M W Q W Y K H L J L K Y W K H C J H K D M L / Y J H K J K K J L J L L ' R K I _ Q P ",
"w C Y 5.M J ( K L Y / L J W Y J W K H K H W W Y Y W W H H D D J K W H H H H D H H L D M L J M M M M D L J D L / W J K J D ( K B ",
"e Q ` Q J _ W Y L Y D C J K H H W L K L K L / / / K H L $.L K J H K J K J H M D W H L M b H H m M M D H M H K K K D C K K Y ( Y ",
"9 Z J Q W ' t.W W K K K H K H H L / W W / / L W K J J K W K K L J K M J J M H D H K K H M m b m J H m M D L K / L H K L L L F C ",
"3 y A Y ` ` 5.I L W K K D L L H K Y Y K Y H Y W ) / K J Y Y K H L L J K H D H H D J H H D W J m M m b b M H Y / L K Q R Q K A d ",
"- d F K Y Y ( Y W Y L H D M M L K Y Y W W Y / ( ) y.K L ( L / J K K H J J J D M m K / K D I W D H M b b m C H J L I W K Y J J d ",
"1 j F I J J Y K Y / W J H L H W Y T Y Q { R _ L J ( H D J Y Y R D H K K K Y K K J K J F I Q J W K M b C M M D M M F J D F I F l ",
"3 A I ( Y R ` ;.$.Y J D L L H D I Y D J L G L W K C L G J B B H H M H Y / ( T I K Y Y k A G l b H J M D M M M b C J F F J P B l ",
"4 l J Q J Y ( W W ` H K K K M M D M m k k n r w w q k m a r b d m t B K I T B b d d B f r l n B K / H M m b D b b M K D K D k d ",
"1 k F J D D Y K / Y J J K J C k C d e 9 j j j j a B r q 8 3 e 0 9 7 7 3 2 e 5 2 7 a 3 = 4 1 e d b b H D m b H M b b B J J C j r ",
"& n F I Y J ( ( W _ / K K H C n 2 $ 2 - 2 7 4 2 2 = 5 2 6 8 7 2 - < = 1 2 7 7 3 2 5 = = = = 2 w w C B C C H Y K D H J K J H k l ",
"= k A _ Y R W t.o.$.K J Y Y B e X   . X X . . + $ $ $ $ $ $ = 3 5 2 = % * = = ; 8 0 7 2 8 = $ & y m D C J H K K K Y Y L H Z k a ",
"= A I ! W W Y Y 5.` K Y Y Q F y $ 3 t t s f p m B C F B B F B B C b d j a a d N Z F B P ~ Q B 7 9 C M H K F J I K L D K J C m j ",
"% m R K R I J e.y.8.W K ( %.C e % 4 t t l l n J W t.` W ;.t.C J ` Y Y I Q Q ' 5.8.%.Q _ b.Q F 7 3 J J L K H J J Y W H L W R n e ",
"% n D C C m H / 5.$.$.W Q I k 9 & 4 y v m m m ( 5.' <.d.5.n.W W Y W o.W _ d.N.N./ 8.t.( 5.N.P 9 - n F / W W K Y H / W Y Q Q A e ",
"= B Q Y C D J W ` Y J K I F B 9 = w t n m F K Y ' 5.d.b.d.y./ _ H / W W W ' W ;.Y n.5.` N.5.J 7 - D I W L K I D L $.o.L Q _ Z e ",
"% k Q N.( H K K / Y / T I F D q 1 w n D L W I W ( ( ` W W L Y L K L K J J D L J W 5.R ` ` ` C w 3 A K W K K K I / W W $.! I k 9 ",
"# j R 8.5.K K J K K W ;.Q F A a 9 y A I W ' t.( Q _ Q K K L L J K J H J D D Y K Y 5.d.` / ` I r 3 l J ! D K D D Y / W / I H B 9 ",
"X k K ( { D K ( L L W ` Y K B q 9 l H / ( W ) Q ) a.Y Y K K K J H H H H H D L / / J ` _ ( <.C e 1 j F K H F Y J Y / W $.Y J B e ",
"# r F d.' W K / Y L W ( W U N 4 4 l J _ | / | ( ( W / L H M J / H Y H H H D / L Y W W @.%.I k 9 & l F J K D Y Y L y.$.w./ F A a ",
"- D G R Y K Q W W W L Q ! ! l 5 1 l L W ) K L / C L W L H H J H Y L H / Y J / L K _ W K I P Z 0 & l F ' Y K I W / o.$.` K K C q ",
"+ l K @.' Q Q { W W K W Q ! l 9 4 l W { y./ Y J W L W W / K H J L H M M L L J D K L a.R J J D q = D I ' W I Y / y.$./ / P U m 7 ",
"+ B R _ R L { W ` W J W ( Y m 6 3 n W a.a.g.y.b L G.W _ W L m J J J H Y M M J L M n / W ` I A d % m R K Y I Y ;.e.( _ ` E ! k 7 ",
"& A I _ R I ! W Q K H W Q I n 5 3 l Q 1.@.y.l.l._ G.W J W _ K D M D C Y H H M K ( P.L.Q ( ! J r % k A D C C K Y ` / $._ R ~ l 9 ",
"- x K ! D K W L W W D / W Q n 9 1 m W { y.h./ / P.k.k.M Q J n d d y b J m D L W _ P.l.;.R _ F 9 = k A K C H H H J W Y l.;.I n 6 ",
"& m R K D m D J L J M Y t.' B e 1 m { g._ 1.t.a.a.G.G.k.K A l d p m d M M H / / Y Y ` W ;.! B 9 % d F Q Q J H J K Y / u.<.I b 5 ",
"= n F K J n J J C H M K I Q Z d 1 B @.` { t.k.t.( W C.Y.K G B 9 $ w B C m C W Y H M K ( W Q N 9 # d K <.i.Y H H L W W $./ Q l 9 ",
"= k A ! I F C J C D D H K Y l x 2 l Q 5._ $._ _ / $.G.l.G m m e 1 b F J H C M n K W K y.( Y B 8 + j K Q @.H H _ W ) _ $.h.{ B r ",
"= A I ' W K J K L L M K Y T F a 2 B / F.Q { @.@.$.G.( J R G R D p H Q ~ K J J H K L L ` Q J n 7 # r A b.! Y K / W / ` ) W Q A a ",
"% m E K R I F W ( / L R Y Y A e - j W ! W W Q W Y a.G./ ! L Y K H %.n.;.J m b b M D / $.Y ( n 0 & D P Y Y L / R / / _ Y R R l l ",
"% l D C M M C Y W @.t.@.( _ C w - d Y E W W J R _ / W W J H J W / H J D H D y M Y D K y.t.<.B p + l G ` _ Q ( W / o._ t.( R F a ",
"- m Q L m H H Y Y Y W ( ( ;.I r - a ;.Y D L L J W ` _ t.y./ L M K L K K J L H H W ` _ K W Q A d # A R / W K @.W _ $./ ` ( Y A e ",
"% k Q H.5.H L K W J L Q ` ;.D e 5 a ! W H J K Y W ` W L L W Y L J H L H H / H D _ / Y Y R W l x % A U _ L L W ! a._ $.e.t.;.C w ",
"# d U 1.i.Y J J J W J W %.Y j 7 6 F N.5.L R L Y ( ( W L M W K L / L W K J Y W L / _ W _ W R F a & n J ! D G I L W _ $.l.$.` Y r ",
"9 k F _ ' Y W R <.Y Y I I J V 9 ; x 1.! Q K _ F K L @.L H D C D H K J H J Y ) Y Y W L / ' R A r & m I K D m J L / / / h.$.=.D e ",
"4 k J _ a._ ' ( _ W K Y P J C q : k 1.Y Q D W D K W _ W n b v n H H D H M L Y W / Y ) ( I F c i & x F L L m K Y L L ) k.8./ k 7 ",
"1 j K _ y.W Y ( ;.e.W Q Q F F a % e Q ! ! J ! W C D J H M b b M H J M b D L L W Q Q W W K B j 6 & l F ! I K J L / / _ ( U K V 9 ",
"3 k W _ h._ _ / K Y Q ( Y I C q * d U 1.! Q ! ! Y H M H K M M J b D M M M D L J W Q { ! R S j 9 = A G { W K K W / / / ` Y K C q ",
"3 n W a.@.! W Y Y W ;.Q W U m 7 $ 7 P W 1.( d.8.W J K K C J W L D H C n b D D D Y A ! Q U z h , & m R I R W J _ / @.` b.R J V a ",
"1 l Q a.@.W $.{ I / W ' <.! l 7 $ q F I Q N.W K I W L K K Y Y U v M m M M m b n I I m N c 0 0 , 1 b D D D D J W / y.a.;.I K B q ",
"3 m W Q | $.) L K K K W R ! l 9 @ - 4 d B k J D m l P C H n B b m k v D M n e 9 e a s n 8 : > 1 a D R W D H L W W / W ' R R m 7 ",
"- m ) G.{ ( Q K Q K H W Q K n 8 # % 4 z e e d s 7 2 a f e b B d 4 1 9 w e e 3 1 & - 1 8 0 - % < b J J @.W L Y W _ W W _ <.! l 7 ",
"- A { { Q ) y.W ! W _ L D n n w 1 1 $ % % % $ $ $ $ # # + + + $ $ # o o o o O $ ; = 2 = & 2 w v C K Y Y ` / L W / ` Y W W ! j w ",
"3 l W <.W ) | g.W @.W W J M M M n e y 0 7 2 3 5 7 e a w 0 9 7 7 7 3 8 p 0 7 s N p N V N f n M M y.8./ $.$.( _ ` ` / W a.5.I n 6 ",
"3 B ! K.Q ) Q I L W K C J J H H D A D H Q I T I F I Y %.K <.{ | / ~ P F B B Z Z P T / K H Z L W / _ / k.h._ / _ ( ) ) @.;.I k 5 ",
"2 j R ' W Y W J L L L H L H H J L L W L ;.Q K J ;.' @.( Y / W | n.A._ ;.S.` / :.I I J / T L L / W o.l.o.$./ / _ Y Y ( $.Q Q n 9 ",
"- d Y Q R W D W ) L L M H Y J L K K K L / / L J W W ( W W W / | u.@.` $.$.u.u./ o.W ( / k.Y H J J o./ o.h.$./ / W K / t.d.<.B 0 ",
"- y ` U D I J L o.W K D J H H L L L K H J J D H H J Y L H L L W / W W ( ( / o./ / / / / Y ( W J H H o.) _ L Y W / ( / W Y Q C d ",
"6 a ! W J J J W _ $.L D H L J H Y ) H M D M v M C J Y W / / L K K H W W J K L L L L H Y W $./ ( H M W L / ) _ / / / Y Y I U l x ",
"7 F N.;.L W Y L W / ) L H M H D J L L / ) / D M K M H / K H H H H K Y W H M M D J K K Y L W ( / / K H M Y / a.$./ o.W _ Q Y F a ",
": l i.Q W K ' P Y K _ K K H K Y H M Y / L $./ M b M M D J J M M m M H Y M M H H D H D / / o./ o./ L K H K _ l._ / / Q <.Q Y A p ",
": l { W ! D ( D L 5.` K Y K Y _ D H L D W L L M v t b L H H L Y D M J D M H L / L o.o.o.y.$.y.$.$.L M H H W _ / / W _ ! I F c i ",
"& q R ! ! L ' Q K I Y ( / W o.o.( / / H L H J H / / H J M J H L L o.) / L H o.L L o.L Y / o.o./ / / J D K L Y W / W / Y K A d 6 ",
"* f U g.! W ! &.Q L J R / K / $.o.o.L H Y Y / / k.$.M H H M J m W ) L / / H L J L L Y Y L J M M m H H J H H K J W Q <.Q I F j 9 ",
"$ 0 G U p.( l.n.W J Y K J W t./ / K n Y L J J W L H K M L H D m L C J Y L L H / L H D L H m D H H J D b b H D C L F ~ E E z h , ",
"$ 0 F L W N.W K Y L Y K J / W I T o.L H D H D L L Y M M y k D m M B b v H v m b b y m M m M m Z b m n M M m n m P I m B c p 6 , ",
"# 1 4 j B d F D B l P B Z n m k K C b v v w d m Z C v 7 4 < 2 4 2 7 w 4 4 7 b M 9 4 w w w m b k m k v D B m r 9 e d s l 9 ; , ; ",
"# & 3 z p q d s 3 - r d e b N d t 8 p n f M 4 9 7 w M b e d 9 w 4 & % 1 7 p D b 2 3 w 9 4 9 4 3 3 2 9 7 e e 2 1 % - ; 0 q - & - "
};
