/* XPM */
static char *_507f72519054c88970d3bb690958ee8w1nP03225RcYYmJP[] = {
/* columns rows colors chars-per-pixel */
"64 64 159 2 ",
"   c #040403",
".  c #080706",
"X  c #0D0C0B",
"o  c #110F0D",
"O  c #1C0F0A",
"+  c #13110F",
"@  c #1A130C",
"#  c #151312",
"$  c #191615",
"%  c #1B1917",
"&  c #1D1B1A",
"*  c #211B15",
"=  c #221E1C",
"-  c #23211E",
";  c #29231F",
":  c #2F291F",
">  c #3F2A14",
",  c #31271D",
"<  c #36281A",
"1  c #252322",
"2  c #2A2623",
"3  c #2C2926",
"4  c #2D2C2A",
"5  c #302724",
"6  c #312C27",
"7  c #322E2B",
"8  c #382F2D",
"9  c #34312E",
"0  c #3A332D",
"q  c #3C382F",
"w  c #353432",
"e  c #3A3533",
"r  c #373837",
"t  c #3C3936",
"y  c #3D3C3A",
"u  c #443C2D",
"i  c #413734",
"p  c #423B36",
"a  c #4C3D35",
"s  c #433E3B",
"d  c #493E3C",
"f  c #4D4429",
"g  c #464036",
"h  c #44413E",
"j  c #4A433E",
"k  c #554538",
"l  c #53493D",
"z  c #464442",
"x  c #4A4643",
"c  c #4C4946",
"v  c #4D4C4A",
"b  c #514642",
"n  c #524B45",
"m  c #594C46",
"M  c #524E4B",
"N  c #5B4D4A",
"B  c #5B5147",
"V  c #54514D",
"C  c #5A534D",
"Z  c #555451",
"A  c #5A5653",
"S  c #5C5955",
"D  c #5E5C59",
"F  c #605753",
"G  c #625B55",
"H  c #625E5B",
"J  c #6A5B58",
"K  c #696057",
"L  c #65615D",
"P  c #6B655F",
"I  c #6B665F",
"U  c #69645F",
"Y  c #6C655F",
"T  c #6E655F",
"R  c #69635D",
"E  c #6E695E",
"W  c #70675E",
"Q  c #716A5F",
"!  c #676362",
"~  c #676460",
"^  c #676560",
"/  c #666361",
"(  c #686560",
")  c #686561",
"_  c #6B6560",
"`  c #696660",
"'  c #6A6760",
"]  c #686662",
"[  c #686763",
"{  c #6A6662",
"}  c #6D6765",
"|  c #6A6662",
" . c #696860",
".. c #696863",
"X. c #6A6963",
"o. c #6C6860",
"O. c #6C6A63",
"+. c #6D6964",
"@. c #6F6966",
"#. c #6E6967",
"$. c #6C6B67",
"%. c #6F6A66",
"&. c #6D6C65",
"*. c #6E6C64",
"=. c #6F6D65",
"-. c #6D6964",
";. c #6B6768",
":. c #6E6B69",
">. c #726761",
",. c #706A67",
"<. c #726B67",
"1. c #716C66",
"2. c #706C67",
"3. c #716D67",
"4. c #716F67",
"5. c #716C65",
"6. c #796C63",
"7. c #716E68",
"8. c #736E68",
"9. c #726F68",
"0. c #716E6A",
"q. c #746E69",
"w. c #766F6A",
"e. c #736E6A",
"r. c #786F6A",
"t. c #747066",
"y. c #717169",
"u. c #737069",
"i. c #75706B",
"p. c #77716C",
"a. c #75726C",
"s. c #77736D",
"d. c #75716C",
"f. c #7A736D",
"g. c #7A726C",
"h. c #7B756F",
"j. c #7A746D",
"k. c #7E796F",
"l. c #777574",
"z. c #7A7573",
"x. c #7C7672",
"c. c #7B7572",
"v. c #7C7974",
"b. c #7D7974",
"n. c #7F7C79",
"m. c #80756D",
"M. c #827B70",
"N. c #807974",
"B. c #807B75",
"V. c #817D76",
"C. c #837C75",
"Z. c #847E7A",
"A. c #85827C",
"S. c #85817A",
"D. c #8A837C",
"F. c #868380",
"G. c #8F8981",
"H. c #908A80",
"J. c #95908A",
/* pixels */
"  X & $ X - - - % % $ % @ $ & # % & & % % % % + # + + + # $ + o X o o @ % 2 ; 2 = % = 1 = % % & = = = 1 = 1 3 2 5 1 - = 2 ; = # ",
"    r z - v n l n p g i j s 0 e 9 : : 3 6 9 0 y 0 0 7 7 6 9 6 8 e q 7 a j i l m l d 2 j x d s b s p x m J N N N N N n n B d y & ",
"  y r # 4 c c n h F c c V C V m C E G L S C A G R C >.T I L R S N b n N A G R R V C 7 V M z s V b F C S V C m M Z F M F M 8 - = ",
"  r 9 & 9 g n j c H R C S I L ^ S t. .D S t.t.t.I H L L L t.j.&.,.,.q.R 1.J H F D A S r H S C F R } J R h.h.n.J.q.g.N.c.q.g.Z e ",
"o r r 3 s h V n H V A 1.q.o.,.I L X.&.D L &.[ &. .L ^ [ y.y. .[ ;.z.V.p.{ | H L &.A.^ v v ^ ^ ^ R R T +.q.0.^ v.0.+.p.{ g.M.H b ",
"= r q e 7 h H H L H G L p.L 0.p. .H L S S D D L L S H D L  .L  .+.0.p.p.L R | +.O.v V 7 r D S S +.p.{ L D :.z.! o.z.p.S.A.<.A C ",
"e 3 C x n C L H V V A Z Z ! y.^ D S S y V v v S S L S S S V Z L i.+.{ H H D A M S c Z 9 & Z S v S 0.q.L L { D :.0.v.j.L o.g.g.W ",
"6 p F F H n <.A c x M D v A L L S L D V V V v V S A V v V V D D { S V v x M A x V w t & $ L l./ v F R H H S s.^ o.} q.L V j.>.A ",
"2 x x n M s A x h z 9 x A v h D ..H $.[ Z V z z z Z D v v v v v S v v V v z v z v 4 1 & 1 r ! Z Z L H S Z A H [ { { i.p.L 1.0.R ",
"3 M B S J J H S S 9 = A Z Z v V l.l...Z v z v z z v Z [ D Z v v Z v Z S / D D v v & % & y 4 D ;.[ M x z x S H ^ +. .v.g.{ } j 7 ",
"= V G I ! H L F Z M 3 z v r Z v ;./ Z [ D z c z v v Z Z Z D Z v V V Z S / Z Z z w % & 4 D v v / v v z z x V S S D H p.{ >.S 6 w ",
"# j F +.{ o.q.o.R S t y s w 9 Z S S Z :.$.V V v z v v D Z Z S S Z S Z D D D Z v 1 % & / ! Z v v z x e z c v Z Z V S L A H V e p ",
"+ c R I I G h.+.;.Z y - z Z Z D D Z z z Z [ z r 1 1 X & z Z Z D D D / / D Z D S 4 1 r Z D Z Z z Z A v Z Z v Z v M V Z V Z y s 7 ",
"- B K *.R T  .o.;.v z z v v z Z D c v v Z Z D Z D D D y./ D V D D / Z D / Z Z V r w Z / D D v r D M v A V V Z v M C c v m h h j ",
"- s H o.Z V M t Z S v S / S Z S D Z Z Z / Z D Z v Z D D V c Z v V S S V Z S D D 4 D Z D ! v z r A H Z A v x z h x c V C V S n j ",
"- j I Z y # 7 S | S y v / 0./ S D / $.D D Z [ Z D D v z Z [ Z v V V v S S V Z Z r l.l.D / v v y D V / A c c c s e z V A s I B j ",
"- 0 C V A h S I H H z / ^ L ! D D D :.*.[ L a.Z Z S z c S Z S S Z Z v D ! Z D V w l.l.H ! M z Z D V v v Z M y v v y v x w F b M ",
"& h C o.x 9 G  .;.H z A ! S D L ! ;.D ;.*.L H Z v z y z D V D Z D Z v / ! ! D V w 0.;.S D h z Z v Z z z v v M M A ;.z 1 w N p e ",
"- C K *.y 0 K S z.H x D D D Z D D ^ D H ^ Z H y y c z V D v v v z Z / ;.D D S V y ! H M Z D D D D D Z Z Z A M v v D A y V V M e ",
"$ n G G x y A 0.e.0.M ! / L Z Z A V S v V y h Z V v v Z [ v c v v S D D Z v Z y w / ;.;.L D Z A v Z Z Z Z D Z x Z ! A r S J g e ",
"$ x V V h 2 A ^ ;.L A L ;.! Z M Z Z v z v h v S :./ Z L H Z c V v V Z D V Z v 4 z A D ;.! S ! Z V Z Z v v v Z v c D V e C G x e ",
"- p C m e 4 z V Z c Z Z D L Z s h r y D &.v v [ [ D / Z D D Z V v Z z v c Z z 4 $ z v ;.0.D Z v v Z M Z v M Z z y y h 7 n J j 9 ",
"& 0 F 8.V z M h z 4 w 7 s c w r $ 1 V y.v.[ z S V D V V V V V V v Z V v z z z 4 9 & r D ;.D Z v Z Z z z v v v v h w 9 w 1 M h h ",
"# w o.>.R { A v x 1 & z 0.D M z & 3 V [ L [ [ [ / [ Z V Z Z V V v V c v v v y 1 1 w r z z v z v Z v z y r z V z n y r 3 g g 9 9 ",
"X h C L L c v =.V 2 1 a.0.[ S c h 1 r X. .&.^ / / S V Z  .A Z V c v v v Z z r 4 y v +.z w c v v c v v V V V M y z 4 $ t x t q 0 ",
"o h m I K S S H V y x a.+.^ Z M v h y S I y.D L V Z V V S M v V v Z z v v r r y D :.H Z z 4 4 7 s Z V S L c x 9 = # 2 j C x h s ",
"X g x A V V >.M b S a.[ *.L L H  .D z r V z S H D D Z Z H S V v Z v z z y r v $.L L V V v S M y 2 c V z Z 7 # - 2 7 x C S h e 3 ",
"  0 s C V V L G M c.0.[ L L O.I L H D V y v L [ y.a.D D 1.S L S v z 4 1 y $. .D V Z K S M S J S v 7 9 w y J V L ,.F G c j t 0 - ",
"  2 t x C L K S A C.I A C R S *.S H K S V t S L Z  .V V v R S V s r & s y.n.1.F C S V C G K S T K S h 4 3 2 2 n S K C C C 0 6 @ ",
"  1 9 h A C j S F g.J M c C K Z S H v V C t 7 j Z v G S V n h h d s M | s.z.I F S G G g B A j 3 1 s e 0 0 7 w 1 t 0 j p t 9 9 & ",
"  1 7 x s j e s S A C g g j j c j j j h h s 4 & - 4 h l 6 q r 7 e 7 A W o.I m h g h v g e 3 3 9 t e 0 4 r 3 7 $ $ # l y : 9 6 * ",
"  & & 1 ; ; 2 7 0 t p d j h h g j y q 9 g g g 3 : h & & 9 6 q 1 2 4 9 9 6 t 7 3 6 p 6 & % $ = = & % % & # & o X X + & e q : - # ",
"  # X X # * = = ; 2 = 1 1 2 8 4 2 - & - 7 0 7 7 = % # $ o % o + # # $ # 2 w & & 5 = 6 3 * = = % = @ = @ &   . o o X $ - % $ + $ ",
"  X X o o # ; 5 i 2 = = % = - = $ + + + $ $ % ; = . # X ; $ X X       . .   . . X % & % = o o o o X # o & o   .   X # # + # # X ",
"0 h s n n N h V H r.,.R F J J Z H N C K K W T C d b F K 6.J s - X $ 1 & . X & 2 9 C V M n A N N A n n b c - 2 9 2 p x p s j 3 p ",
"M R g.N.<.r.C Z.r.G.H.L H i.0.{ H S J S } } H F S M i.+.h.K N 6 o % - # # # . # r J ^ K q.q.V A n n S z M I S S v V } I S V A >.",
"V N q.} } >.V I e.A.v.g.;.+.A D Z D +.^ +.y.S >.! j.g.I i.y.F 6 X & 1 $ $ 1 4 0.o.,.>.g.H +.A c H J A - { 1 z w h c t v c G L G ",
"S L D m x S S i.J A L A x h x M V c s M c S A A H q.S { h.t.A & # & & & & 7 L H +.p.z.M.k.V.K g.L Z z h V z h C 0 Z A y.8.K A v ",
"Z S H c S v S +.V z & v +.{ M L S D v 2 w c M s 1 T V F D C c - # # & X # S +.,.0.o.g.+.0.{ H Z A H y Z S 9 z y S y.^ p.1. .G S ",
"D D &.K M } ^ ! A s e 1.;.! D M D Z v 9 h V G I +.M.} M c C M p & & & X # V r.| S K { I -.{ +.} { ! t F h M h V *.^ o.D Z S S L ",
"A A Z C S S Z  .v & ;.:.l.! D D S Z h 4 S V ^ l.5.S >.L F F 6 t 9 2 & X # c I L I S V G S ! I H V v z & y / y A Z L :.D V v c v ",
"V V Z Z V c V Z A M ;.L } ! S S Z y r Z z c { ^ } A L t.T V y 3 - 2 1 # 1 V v *.A C v c c V S F Z Z V z c x y S Z V ^ H z h r h ",
"v Z v z z c Z Z Z A M D M v v z 9 x Z D A v S L {  .L J F A N q 1 9 y & # 1 4 *.c.V. .H R J H 1.L Z Z z z v V r v V S z z y y c ",
"v v z c c Z v S D H v v s w z z D / L D D V S ^ S S *.T G C c p 4 9 H c c 1 w n.0.o.>.q.,.L L D D L Z v x V / r w v v v v h z v ",
"v V v Z v V D D ;.D c v s s y ;.! L Z Z S D D ! -.:.y.q.K V V h - 9 *.a.t.V s L i.0.*.{ { }  .L D D D A Z Z Z Z r v D / v z V Z ",
"v v v Z V D V Z ;.Z ! ! Z r 0.z.! v Z D v D L 0.-.^ o.+.F S n 0 - 3 I y.*.L v k.5.8.L I I H L S S S D H D D D Z v y / / D c S D ",
"z y y z c v v Z S v L D c r v.F.0.D Z H S Z D ;.*.L L I K S n 0 3 l [ R y.h.L 1.>.L A G H D S S Z Z D / / Z Z ! Z w z Z D z v S ",
"z z z z r r r z z c V Z y z l.;.D D M / S Z D :.{ *. .I Q K g 9 3 c s.v.+.;.M L 5.L V Z M V S V v V Z D D D Z D Z 4 D D Z v Z D ",
"v v r y r r z v v v / D v 4 / D <.;.H D ! { ! ! L ^ 0.L J E j e 2 B z.1.*.:.A 8.v.;.;.D Z V V v v Z S Z D D D D v r z / Z z v D ",
"V v v V D v z z Z v z v 4 v / Z b.q.[ 0.;.H H [ D ! q.1.8.L n 0 3 n t.i.*.a.M o.0.V.;.H Z v v c x Z D D D Z v Z z z 1 D D D v D ",
"Z v y v S Z v v v r w Z w 4 Z ;.[ ,.;.l.0.H H H ^ ^ { 1.t.J M 9 3 C q.C.1.a.L t M +.D V Z D V Z v Z Z Z Z D Z v c y w D D v v D ",
"v v y v v v z 1 r r r z r 1 z l.[ +.l.0.;.+.H H L H [ <.o.} j 0 1 l } t.;.^ o.V 4 L H D D Z V Z v v Z x v v Z Z V z r y Z v v v ",
"v v y z v y 1 # 4 v v v v w v D A ;./ / -.0.D / D V D H R F h 2 1 j <.E *.1.L L L r } S D H Z A D Z c c V z V v D v z r v Z r v ",
"z v z z y & 1 1 Z [ / / Z z / D V V [ L / v S D / z z z v z a s 2 j r.R S I K L J r 1.L [ A M M D Z Z x V z Z D D v v z r Z v r ",
"z r z z r & 1 w Z Z Z v 4 ;.v ;.s y z y v ^ D :.[ [ [ [ } 8.B m q g 1.{ S D H { 0.y h.^ [ ! D Z M D Z A v v v V v v Z v Z z v w ",
"z z v V r 4 & r Z v v r 4 Z v V y z v v A ! :.;./ ;.0.q.8.6.F h 0 C g.,.D L ! K I c ! H ! D / A H S D L Z Z v y z y z Z v 4 4 w ",
"z z v Z y $ r D Z z z v D ;.D z 9 r c h z / ;.;.;.+.y.i.a.*.B q : j O.R R L y.G I A M w Z H ! ! H D D ! D :.D z r r c v V z w z ",
"v v Z Z 1 v A L D / y ! D ! Z z L Z r z V / [ :.0.o.0.>.K C l u , d O.K R Z *.G L i.{ Z s s [ 0.D D D Z ! D Z M y r y S v r [ D ",
"D ;.;.D - y ;.H v v Z ! ;.D Z / L H V c A / / :.0.+.o.H S n p 0 & e G R E R t.*.{ R I +.c M M ;.[ / A D ! A H A 0.;.Z H Z w D D ",
"/ ;.D D A X L A r D Z D Z c z V z V Z V V v D Z L K Q K G B g 9 = a J t.*.Q t.k.:.K H V 4 x :.z.l.l.;.! :.! 0.e.n./ z D Z w D V ",
"/ Z D D M % A A Z w 7 L D z v M V S V x x V n V S B T K G k f > % 9 A K k.i.S.k.o.H ^ s e z.n.0.;.^ Z { H D H H D S H Z D v D Z ",
"z V z z v 8 v h y s Z A v v t Z j M c M n x j x A F c c k 0 9 < % 0 V K I D.*.I } I L z ^ e.<.<.a.p.^ S Z D A A A e.Z c z y z v ",
"4 9 r 9 & r x M 7 7 w r t h c c b h s M c j e 9 e i a j 0 : 5 1 @ 1 4 h n n K S n l A 4 L V N b ! C c c x y h Z M C v w 7 1 1 1 ",
"4 & & $ 2 s N z 1 8 7 3 3 w 7 5 7 2 w 9 e 0 2 2 = - ; 7 q - & = # & 3 k s p j d = 1 6 d d N F x d e p z b C w 8 t i M d y s 2 w "
};
