/* XPM */
static char *_5d0fe806ead4981f7d390ba4e4e583bdPmVK2ripaLXRsOe[] = {
/* columns rows colors chars-per-pixel */
"64 64 197 2 ",
"   c #050604",
".  c #070804",
"X  c #090B04",
"o  c #110F0A",
"O  c #0E1204",
"+  c #121604",
"@  c #1A1207",
"#  c #15150D",
"$  c #16180B",
"%  c #181A0D",
"&  c #191E05",
"*  c #151711",
"=  c #1C1D12",
"-  c #201E14",
";  c #1C2204",
":  c #1F2805",
">  c #1D210C",
",  c #1F2114",
"<  c #1E2018",
"1  c #222B06",
"2  c #20220D",
"3  c #242C0C",
"4  c #273007",
"5  c #283106",
"6  c #25310C",
"7  c #2B340C",
"8  c #2E390F",
"9  c #313B0E",
"0  c #232414",
"q  c #282617",
"w  c #262A13",
"e  c #2A2C16",
"r  c #25251A",
"t  c #29261A",
"y  c #262A1C",
"u  c #2B2C1B",
"i  c #312F16",
"p  c #263710",
"a  c #2C3413",
"s  c #2D3A13",
"d  c #2E3419",
"f  c #2F3919",
"g  c #303615",
"h  c #323C15",
"j  c #31351D",
"k  c #343D1B",
"l  c #383F1C",
"z  c #393A16",
"x  c #2E2D22",
"c  c #2F2F2A",
"v  c #302D24",
"b  c #2F3222",
"n  c #333423",
"m  c #393725",
"M  c #363B23",
"N  c #393D24",
"B  c #34342A",
"V  c #39372A",
"C  c #363A29",
"Z  c #3B3C2C",
"A  c #353532",
"S  c #383735",
"D  c #3C3C33",
"F  c #3E3D3B",
"G  c #413B2F",
"H  c #413D23",
"J  c #413F34",
"K  c #403F3C",
"L  c #344116",
"P  c #394416",
"I  c #36421B",
"U  c #3A441C",
"Y  c #3D491D",
"T  c #364122",
"R  c #3B4423",
"E  c #3E4923",
"W  c #3D432B",
"Q  c #3E492B",
"!  c #3E4132",
"~  c #40471F",
"^  c #414B1E",
"/  c #414527",
"(  c #424B24",
")  c #41442C",
"_  c #49452D",
"`  c #444B2C",
"'  c #484E2D",
"]  c #4A5327",
"[  c #47512D",
"{  c #4A522D",
"}  c #4D592E",
"|  c #435025",
" . c #545D2F",
".. c #434433",
"X. c #494732",
"o. c #454B33",
"O. c #4A4C34",
"+. c #43423C",
"@. c #49473F",
"#. c #47493A",
"$. c #4B4C3B",
"%. c #524D3D",
"&. c #4C5333",
"*. c #4E5830",
"=. c #4D523A",
"-. c #515635",
";. c #535B34",
":. c #51513A",
">. c #51543C",
",. c #555B3B",
"<. c #595C3D",
"1. c #5A6235",
"2. c #57613B",
"3. c #5C643C",
"4. c #60673F",
"5. c #454442",
"6. c #494643",
"7. c #4B4A45",
"8. c #4D4C4A",
"9. c #514F44",
"0. c #514E4B",
"q. c #4F5144",
"w. c #4F5048",
"e. c #535344",
"r. c #585746",
"t. c #565A43",
"y. c #5A5B44",
"u. c #53524D",
"i. c #59564D",
"p. c #57594A",
"a. c #5B5C4B",
"s. c #565451",
"d. c #595653",
"f. c #5C5A54",
"g. c #5E5C59",
"h. c #605F47",
"j. c #615F4E",
"k. c #615E54",
"l. c #615E5A",
"z. c #5C6143",
"x. c #5D624B",
"c. c #5F6052",
"v. c #5E6A53",
"b. c #626546",
"n. c #636B44",
"m. c #62644D",
"M. c #646A4D",
"N. c #696C4E",
"B. c #687046",
"V. c #6D744E",
"C. c #646354",
"Z. c #696756",
"A. c #666A52",
"S. c #6A6B55",
"D. c #64625B",
"F. c #69665D",
"G. c #67685C",
"H. c #6B6A5C",
"J. c #716E5D",
"K. c #677053",
"L. c #6D7155",
"P. c #6E715D",
"I. c #707152",
"U. c #747957",
"Y. c #72735C",
"T. c #737A5B",
"R. c #797D5E",
"E. c #666461",
"W. c #696662",
"Q. c #6D6B63",
"!. c #6E6C69",
"~. c #716E64",
"^. c #726E69",
"/. c #6E7162",
"(. c #737263",
"). c #7A7766",
"_. c #757A64",
"`. c #7B7B65",
"'. c #76736A",
"]. c #79766C",
"[. c #7C7B6B",
"{. c #797570",
"}. c #807D73",
"|. c #79826B",
" X c #7C8364",
".X c #7F8571",
"XX c #808763",
"oX c #818961",
"OX c #81826E",
"+X c #85896D",
"@X c #88926B",
"#X c #848375",
"$X c #828C73",
"%X c #878678",
"&X c #898573",
"*X c #829077",
"=X c #8C907D",
/* pixels */
". . = = 0 y d e a u q q > 0 0 = 0 q 0 - = 0 w , , > % # % 0 3 a 0 % # @ = e 0 u 0 - 0 0 - = = % - - - t 0 q t q t q 0 0 t - - * ",
". . A +.` ! ) k I U U k f k k N M g j k M R P I P Y M b n l h g P I j N G m _ _ _ / ) ) / G Z X.Z Z ..X.R l N ) ..X.#.:.%.J F t ",
"  ! D b T R I I I I R I U U I l E U k k k k I f L f k ) R k M I I f f k a g / / U U U Y ( ( ~ U U U / U I k g k k ` o.O.X.V u = ",
". C n T I I f I I T E E E Y E E E E Q T M ..W ! W n Z X.#.a.a.=.Q o.W Z ) &._ _ / ) R R U U U R R R ( / W >.S.C.=.o.$.' >.Z.i...",
"% C R E U I I M N N R ^ ( E E E E E Q Q Q &.o.p.f.=.f.c.|.[.].(.G.A.OX_.m.y.:.,.:.y.X.m T R Z ) >.O._ ` >.S.`.%X~.i.S.C.m.H.k.#.",
"q ` U P L f k W ` ( ^ ( ( E R E T C R Q Q E +.d.c.f.C.c.H.Q.Q.Q.'.(.[./.m.,.h.Z.m.=.<.` E R ` =.m.a.>.e.O.H.}.].].}.].%X#XZ.i.%.",
"B O.I L L T Q =.O.( E R R T W B ! +.! M R C 5.d.f.Z.g.f.f.u.u.Z.(.C.c.x.a.o.p.:.y.&.-.' R / E o.t.j.Z.h.y.C.(.~.Q.].{.H.Q.(.G.j.",
"n O.` U U T =.=.' U l N N W 7.i.6.w.#.! C +.8.8.g.p.u.8.u.u.k.k.H.f.$.o.Q W =.O.&.E R R E ` Q o.#.u.a.a.r.k.~.k.D.k.~.F.a.J.k.9.",
"M R ( P R ` y.-.( / m 9.k.i.6.F.E.g.l.d.8.8.8.5.5.d.g.8.0.8.8.w.i.q.$.W E T E E R R T k T ! D ! 9.i.i.r.9.i.j.k.D.F.H.Q.H.H.F.k.",
"d Y Y Y U ' N.<._ N ..k.d.d.7.8.!.{.E.d.8.5.5.5.5.8.s.E.g.s.8.w.d.7.q.Q E Y T T M n b C c A 6.D.W.9.K K K i.d.l.F.l.k.D.H.Z.e.9.",
"6 P Y Y ( -.I.b.y.:.7.s.g.s.d.0.l.g.8.E.s.5.5.K 5.8.s.s.s.g.s.8.w.=.o.E Y Y R W D C ! 6.d.K 6.g.0.@.K K @.0.k.d.u.i.d.i.i.h.%.J ",
"w P Y ^ ^ <.U.I.h.a.i.s.s.F K s.s.s.0.!.!.s.0.8.5.8.d.g.s.8.d.g.s.7.Q Y Y R R T #.5.s.W.g.6.5.6.9.s.K K @.0.u.0.u.i.l.d.e.a.9.J ",
"a L P ^ E <.L.m.F.~.d.s.0.s.s.s.g.d.s.g.l.E.s.g.d.8.g.g.w.s.s.g.s.q.Q I R T W Z 5.w.s.s.s.s.s.5.d.8.5.0.0.0.d.0.0.i.d.d.0.y.$.) ",
"L h I R ` M.A.H.~.f.u.7.g.g.s.s.l.s.s.8.g.g.g.s.g.g.d.E.g.g.8.w.q.$.R T E ) +.+.6.6.8.s.g.g.s.s.k.s.6.0.8.8.0.0.0.u.u.u.%.X.) ..",
"g Y Y T =.H.D.k.F.Q.0.g.g.g.0.s.d.d.d.0.l.g.g.s.8.0.g.d.s.s.s.5.o.` Q T C F 8.g.d.w.6.s.d.8.8.8.s.l.8.8.5.5.K K 5.7.f.i.$.Z M ) ",
"e R o.Q =.9.d.g.W.l.s.s.g.E.E.d.l.E.!.l.g.d.l.s.s.s.s.s.d.g.w.8.! T T D +.u.f.s.s.d.g.8.g.s.8.s.s.8.s.0.8.5.5.5.K K 0.6.J k l ) ",
"0 ) #.Z e.e.k.D.g.W.l.l.g.f.l.l.l.l.^.!.E.g.^.d.w.d.s.8.g.s.d.d.#.W M X.s.s.l.g.s.g.g.d.g.E.l.g.s.8.6.8.0.d.8.5.F F K K J m ~ G ",
"q W k x.x.`.C.W.W.W.l.s.g.s.g.l.E.!.l.!.{.W.E.d.d.d.8.8.g.0.c.u.&.R C +.0.g.g.E.g.g.d.s.g.l.l.s.0.0.6.8.0.s.s.0.8.E.8.G G H U H ",
"f l T _.+X[.D.D.^.^.f.g.d.d.d.l.l.W.l.l.!.E.!.l.g.s.8.g.g.8.7.! T T J 7.g.d.d.s.d.d.d.g.g.d.d.s.s.s.0.0.s.s.0.8.0.l.s.%.W U O...",
"L k ` T.&X(.i.H.~.'.l.l.g.g.u.s.g.0.l.g.E.s.s.g.s.8.s.d.W.s.5.! Z W K 6.s.s.0.0.8.8.s.g.g.g.u.u.0.s.0.s.s.d.s.6.0.l.d.K W l G V ",
"P g ) y.y.9.r.D.~.W.~.g.l.g.s.7.f.l.c.d.s.5.5.s.Q.c.g.g.E.d.7.0.7.8.u.i.s.d.8.6.8.8.8.s.s.d.d.u.s.s.s.0.8.0.s.8.6.f.9.e.$.N ..V ",
"R k ' N.e.e.i.k.F.k.s.d.l.l.g.0.8.8.s.g.g.+.6.c.E.g.l.g.g.l.s.s.0.s.8.8.8.0.0.8.8.8.5.s.g.s.0.0.s.0.0.s.8.s.0.8.J K @.+.X.W ..V ",
"I k $.+XY.i.a.i.k.d.D.k.g.d.s.u.0.7.8.D.!.v.K d.s.i.l.u.0.0.s.s.0.s.8.8.6.5.0.s.8.6.5.8.f.s.7.7.s.0.6.6.8.6.0.6.K S B D B n n T ",
"k d $.R.).j.i.u.i.a.k.k.l.d.u.s.d.i.s.g.f.Q.!.!.l.l.d.u.u.s.u.u.u.u.8.8.8.0.8.8.s.8.s.8.5.0.5.5.0.6.K F S 5.8.6.@.D C u e n j N ",
"k d W M.Y.e.i.~.k.a.C.Z.C.k.s.i.u.w.p.C.f.C.Q.W.G.d.i.d.W.f.s.u.7.8.8.e.u.u.8.6.i.7.g.u.D F F @.7.#.6.+.+.Z D D J v u 0 u N B M ",
"d f T S.(.C.a.F.k.j.b.m.x.c.a.d.i.p.e.G.S.C.c.C.s.s.w.u.k.0.0.s.6.s.6.u.u.6.w.8.8.i.u.u.7.D C +.%.7.e.C.e.D W W B n j d W D G Z ",
"0 R R =.[.J.~.Z.k.J.h.y.x.C.G.C.F.D.f.p.j.#.f.l.c.c.d.d.k.k.u.9.i.f.w.d.w.u.i.i.8.p.=.e.$.x.e.X.X.$.y.>.x.=.a.m.y.C N ) N Z m t ",
"+ T E W S.H.Y.H.J.J.>.<.,.z.A.S.C.k.C.A.G.C.H.F.!.'.g.c.H.g.p.=.>.t.e.e.e.e.e.$.#.y.m.y.-.y.<.-.` O.` k Q =.=.,.m.=.M k M D B t ",
"O I Y E &.A.S.S.J.h.,.O.{ ,.z.P.f.C.C.C.S.Z.H.k.s.W.e.u.i.C.p.&._ { 3.;.,.,.o.` -.y.&.&.{ ( ( -.{ -.{ l P / R &.o.Q d g M Z v 0 ",
"X j E Y E ,.A.v.m.h.-.E E E E &.p.m.q.t.p.p.a.f.p.q.i.q.e.$.` P P ( ]  .[ E &.*.` -./ z ~ 9 5 P ( U U ~ U ( ] / s f w 3 d m v - ",
". u M T Y Y [ &.:._ ( I p 6 p T #.X.#.! ..#.Z N N n T Q M p s 9 5 9 P Y I s I I h h 9 1 1 9 7 1 5 7 1 5 h z L z a 3 3 3 0 i j - ",
"X w w I Y Y 8 L h g 1 4 p 6 1 p N N M d g M j a l h s s p p 8 9 9 9 8 s f s L k h g z ; 7 9 8 7 7 3 7 g 9 h h h a a f l h j - * ",
"> h f P ^ Y P U P a 7 h h s a p p I L L s 7 3 a f f f L p s P P ~ P h k I f w g k I f s h P s 6 7 7 s L 6 1 6 g 2 a l ~ P w # * ",
"h h I g Y ^ Y Y U P I a 6 L g h k E E f 6 f k P f s f f L L P P ^ ~ U U R a k I M I I I I U f f 3 3 4 s 3 + & & w 6 6 g a > $ o ",
"P k g l Y L U E / ( ( U U U U U R E Y I I I I N T a f s L s : 8 P ^ U ( / R M T T T I T T U f 3 a 3 a a k k k 6 2 3 i g j m G J ",
") ` r.-.) O.W ) ` ` ` U U E Y E E I T T Q T U R W ` Q I E I 4 O 1 h U ( / T R U Q Q Q E W T k ` ,.M M W m.m.<.&.N O.%.O.%.Z.j.F.",
"a.j.).Y.m.S.h.&.&.=.O.[ / ( ( Y U T Q [ ` E ` ( -.z.` ( } B.E ;   & U T R I M o.z.x.|.v.v.x.e.m.A.t.a.m.`.m.y.y.h.%.h.y.Y.(.~.F.",
"d.F.F.~.&X[.).a.e.=.A.-.` ( E T E E Q t.` R ( ` O.&.E E | 3.] 8 ; : l T k d T =.K.T..X.X.X|.(.).(./.~.(.C.H.a.Z.y.e.e.F.].F.j.0.",
"s.k.D.f.C.H.k.H.'.G.A.-.[ R E E T Q Q [ T Q W ( ` ` ) &.&.3.Y 9 8 h L U T Q x.x.v.v.|..X_./.~.^.H.W.D.Q.'.(.H.H.Z.F.9.k.~.W.k.k.",
"l.l.H.k.u.k.j.h.a.c.$.W T Q Q T T T E Q M o.a.W ) ,.N.2.;.1.} 9 P P L R Q =.z.v.K.T./././.!.~.~.'.^.F.F.D.f.k.~.).~.k.s.s.d.l.l.",
"s.f.f.f.d.i.s.C.f.f.t...R T R E E E R E Q o.x.x.Z.O.b.,.;.3.| 7 P Y U R >.|.K.P.G.c.c.F.F.^.J.Q.l.l.W.d.g.g.g.s.f.d.l.l.s.7.7.0.",
"0.s.s.s.u.7.8.d.f.f.s.#.T E E E E Y R R I Q A.x.h.-.' } 2.Y 1 1 h Y E R x..X=X/.P.C.c.g.i.k.Q.^.^.E.g.8.8.8.s.g.0.0.E.l.5.K F 5.",
"0.d.8.6.6.8.s.s.s.u.6.e.W M T U I M T Y U R &.b.-.` / T | P h 1 6 P R E =.P././.Q.(.C.d.F.k.l.~.W.l.s.0.8.8.s.s.5.7.s.6.5.F F 7.",
"6.0.7.7.6.s.w.s.g.g.8.#.M T T R R Q R N U T R ` R U U ( ( P 7 1 7 I E E &.G._.W.g.k.H.~.~.l.l.k.l.l.s.0.8.d.E.d.0.5.K 8.8.5.7.8.",
"8.8.8.s.w.s.g.g.!.g.d.+.M R E R R ....Q T R R W / T R &.( h 5 7 s l ( Y { M.H.c.C.Z.~.H.W.H.Q.F.l.l.l.s.g.s.g.s.s.s.0.g.7.5.s.s.",
"8.8.s.s.s.g.s.s.W.d.E.8.W M W E R ! q.Q U T n =.W C ` z.{ ~ 7 3 h P Y E -.Z.Q.Y.f.D.l.W.W.l.l.k.l.d.g.l.g.g.g.g.g.g.g.d.s.6.d.l.",
"K 5.5.6.8.8.8.8.g.u.g.7.n C D W Q ` $.E R T o.e.e.o.O.y.;.] a 3 h Y I R t.Q.Q.f.f.f.f.k.l.l.d.f.s.d.l.E.l.d.g.g.s.s.s.0.d.5.0.g.",
"5.5.K 5.S S F 6.6.6.u.6.A 8.+.! Q R ..U R W e.m.m.m.t.b.b.3.P 6 I I E ,.M.G.G.f.G.f.i.i.u.s.k.s.0.0.s.l.l.g.0.E.g.s.d.8.8.8.s.l.",
"8.8.F K 5.A 5.8.8.8.g.g.5.8.8.F ` E o.T W $.>.y.y.A.m.M.2.&.l I I L / n.I.H.~.Z.W.F.W.f.d.8.s.s.0.s.g.s.E.l.g.g.d.l.s.g.6.5.0.g.",
"s.8.8.8.g.8.5.5.s.8.g.g.8.8.0.! ( ` o.Q Q $.$.r.y.h.J.Y.L./ L P L s &.N.`.~.W.^.l.^.W.W.g.8.8.8.8.d.g.g.g.u.0.s.0.g.8.s.0.8.8.g.",
"8.8.K 8.d.0.6.8.8.8.g.E.d.q.p.Q E Q o.` o.p.t.y.,.y.Z.J.H.( h I I h ' U. XH.G.k.l.F.f.8.s.d.s.s.0.s.s.d.d.g.d.u.8.8.8.0.s.8.8.g.",
"8.8.F 8.s.0.5.s.g.5.5.8.s.7.o.Q W +.=.Q q.A.a.y.<.<.Z.H.m.&.h I L I { L.Y.C.k.j.k.l.g.g.g.s.8.s.0.0.s.6.6.0.s.u.s.8.8.8.6.8.5.8.",
"6.8.5.5.8.5.s.s.s.s.s.8.u.w.Q T W =.#.+.k.S.y.y.<.%.j.J.H.-.I P f L [ T.).C.i.k.Q.l.F.s.f.g.d.f.l.s.8.8.0.6.0.0.g.s.8.s.8.0.5.6.",
"5.6.F F F 5.8.8.s.s.s.g.d.W.o.T M D d.p.a.e.p.x.N.b.h.b.<.' L L L s &.K.C.j.f.f.~.H.k.k.g.i.s.u.l.s.u.6.0.5.s.l.d.8.0.8.8.0.8.5.",
"5.F 5.5.S F K 5.6.8.s.8.g.!.$.Q T M $.7.i.Q.W.G.h.<.:.;.&.U l s L L &.v.j.p.d.k.H.^.F.f.g.f.f.u.8.d.d.d.0.6.7.i.0.8.s.0.s.0.8.5.",
"F 5.8.8.K F F F 6.5.8.s.8.g.=./ R W ` ..i.k.Q.!.h.<.4.4. .U L 8 L Y 2.T.F.D.k.j.F.H.l.i.d.s.s.s.d.s.d.k.i.i.6.K 6.F 5.s.8.K A A ",
"S 5.8.d.F S 5.0.8.6.5.s.s.g.6.! C C ! ! 7.c.W.G.k.<.1. .^ Y I P L Y *.L.P.C.Q.H.H.S.C.q.e.p.d.c.f.p.a.x.e.S.e.+.S S +.7.7.6.5.F ",
"K 6.s.0.K 5.8.f.g.E.D.c.s.s.d.+.! Z C ! 8.v.D.c.p.<.4. .Y 9 I P L L &.v.S.c.(._.L.N.A.z.x.e.x.G.e.i.a.q.A.a.p.8.S A +.s.w.w.d.f.",
"g.W.!.l.s.5.F.u.s.W.d.f.C.f.w.e.e.w.! o.e.e.x.x.y.n.4.4.^ 5 a U L s &.L.T.S._. XU.M.z.M.A.z.x.y.t.a.a.,.y.e.t.q.c.v.7.q.8.p.u.f.",
"l.W.d.W.W.5.9.9.s.c.c.p.e.p.q.u.p.x.$.=.t.&.&.*.-.n.4.1.^ L a P L L [ T.+XR.oX@XB.z.;.3.z.3.2.z.,.-.=.O.t.m.x.p.W./.d.u.i.q.d.6.",
"g.8.u.d.i.9.9.k.a.e.:.r.q.t.=.=.=.O.=.z.&.] ( ^ ] ] 3.] ] h z z a I ( *.oXV.V.B.4. .} { ;.n.<.3.-.' ( &.z.t.z.x.C.p.f.q.f.u.e.8.",
"8.8.+.J e.K 6.@.+...$.$.$.$.o.q...=.` &.{ _ R / L z 9 L U k m i % M &.-.z.L.-.,.2.,.;.-.<.z.z.<.,.z.>.-.:.e.=.f.i.k.7.6.D ..e.#.",
"x B B B v B +.6.B x B B S #.+...#.) Z T ) ) N j l N H / n e d y $ w d ..$.X.y.-.$._ <.%.:.#.O.) y.:.O.) _ m ) $.=.q.+.B c 0 u b ",
"x = * t v G e.@.x u n n x n x x v 0 n i M m e q 0 0 e n M 0 = , # % u _ m N G ) i w Z ) N _ $.) N j m X...$.j n b Z $...Z ! b n "
};
