/* XPM */
static char *c613eb8164d24d27b1e9c04bba1dde08WRi0qcmnTkdxGh8L[] = {
/* columns rows colors chars-per-pixel */
"64 64 160 2 ",
"   c #040303",
".  c #0D0C0B",
"X  c #110E0E",
"o  c #1B0F0A",
"O  c #13100E",
"+  c #151312",
"@  c #191615",
"#  c #1C1917",
"$  c #1D1B1A",
"%  c #231C15",
"&  c #291F14",
"*  c #221E1C",
"=  c #25211E",
"-  c #2A231F",
";  c #35291D",
":  c #262422",
">  c #2A2523",
",  c #2C2925",
"<  c #2D2B2A",
"1  c #322B25",
"2  c #392D27",
"3  c #332E2B",
"4  c #392F2D",
"5  c #35312D",
"6  c #3A322D",
"7  c #353432",
"8  c #3B3633",
"9  c #3D3935",
"0  c #3D3C3B",
"q  c #402B15",
"w  c #40312E",
"e  c #453D2E",
"r  c #403735",
"t  c #423B36",
"y  c #4C3D35",
"u  c #433E3B",
"i  c #493E3B",
"p  c #4E452A",
"a  c #474137",
"s  c #4C4137",
"d  c #44413D",
"f  c #4A443E",
"g  c #524236",
"h  c #50473D",
"j  c #54493E",
"k  c #454442",
"l  c #4A4643",
"z  c #4B4946",
"x  c #4D4C4A",
"c  c #524642",
"v  c #524B46",
"b  c #594C45",
"n  c #514E4B",
"m  c #594C4A",
"M  c #575147",
"N  c #595247",
"B  c #53514E",
"V  c #59534D",
"C  c #5E594F",
"Z  c #565451",
"A  c #595653",
"S  c #575853",
"D  c #5C5956",
"F  c #5E5C59",
"G  c #625C56",
"H  c #685C57",
"J  c #615E5A",
"K  c #695F5B",
"L  c #676357",
"P  c #65615D",
"I  c #6B635D",
"U  c #68635E",
"Y  c #69635E",
"T  c #68635D",
"R  c #69655E",
"E  c #68645F",
"W  c #69645F",
"Q  c #6B665F",
"!  c #6D665D",
"~  c #6A645D",
"^  c #6E695F",
"/  c #666361",
"(  c #656460",
")  c #656560",
"_  c #676460",
"`  c #676560",
"'  c #666461",
"]  c #686460",
"[  c #686560",
"{  c #686562",
"}  c #6A6562",
"|  c #6C6660",
" . c #6D6760",
".. c #6C6661",
"X. c #6F6660",
"o. c #6A6662",
"O. c #676962",
"+. c #6A6961",
"@. c #6B6863",
"#. c #6C6863",
"$. c #6D6A63",
"%. c #6A6864",
"&. c #6B6864",
"*. c #6A6964",
"=. c #6A6965",
"-. c #6B6A64",
";. c #6C6964",
":. c #6E6865",
">. c #6E6965",
",. c #6D6B64",
"<. c #6E6A65",
"1. c #6F6A65",
"2. c #6E6B65",
"3. c #6E6D66",
"4. c #6D6964",
"5. c #6E6C69",
"6. c #736862",
"7. c #706B65",
"8. c #716B66",
"9. c #726D67",
"0. c #706E66",
"q. c #716C65",
"w. c #716D68",
"e. c #716E68",
"r. c #736E68",
"t. c #716D6A",
"y. c #726E6B",
"u. c #746E68",
"i. c #746F69",
"p. c #726E69",
"a. c #747066",
"s. c #797266",
"d. c #727068",
"f. c #737069",
"g. c #737169",
"h. c #72726A",
"j. c #747069",
"k. c #74706A",
"l. c #75706A",
"z. c #77716A",
"x. c #76736D",
"c. c #75716B",
"v. c #79726B",
"b. c #78746E",
"n. c #7A756F",
"m. c #7E766C",
"M. c #79746D",
"N. c #7D796F",
"B. c #797571",
"V. c #7A7570",
"C. c #7B7671",
"Z. c #7C7871",
"A. c #7C7872",
"S. c #7F7873",
"D. c #7D7872",
"F. c #827B73",
"G. c #807F79",
"H. c #878179",
"J. c #8A857E",
"K. c #8F8A84",
/* pixels */
"    # # # : = * # $ # # @ @ $ @ # $ $ # # # # + + + X X @ @ + X . X X o # > - > % $ * * * @ @ # $ $ * = * = : : > : * * - * $ + ",
"  . 7 z h k f h l u i t f i 7 9 6 1 < , 3 3 8 9 5 8 4 2 3 5 3 4 8 6 4 y f 9 j b c i k i u u 9 f u u l m H m m c c c m m b i d : ",
"  0 0 < < h f z f N z v V V V m V ! G L G V H L Q V 6.X.@.L ! G V c v m V V K T A V n x z d u m c G A G n m z n n Z Z A z 9 > $ ",
"  0 < 7 < 9 z f B D L D P Q P P F h.^ J D a.0.f.@.J / U R f.M.3.u.S.7.J 7.G D A / Y J { G Z A A K ..K I v.u.x.K.u.m.F.v.6.t.D d ",
"X 7 0 0 d u B V A B V _ $.T $._ P -.3.P P 5.=.5.-._ R O.h.x.O.-.t.t.Z.t.U &.J } -.S.{ F J / J / U Y } $.t.} { B.t.&.;.&.&.m.J l ",
"= k 9 6 d x J D D F F F 5.$.;.3.P P P D F F F J P F F F P -.E R ;.0.t.y.U J } ;.} U P D J A Z F &.y.} J D } k.-.} V.7.x.S...A b ",
"5 c z f x D L F A B B V B P } J D Z S d B x Z F F P F F F Z B E u.;.} U J F D n J L / J G F Z x A ....G F _ 3._ Y t.;.D L q...H ",
"5 v m V C D U V B k k Z z B J J S F F B B Z x x D S B B B B F P $.D n n x n D B A n x A ;.8.5.F l V F G D F ;.J J G ;.D x ;.H n ",
"6 l m m G G G D V G n D ;.D z _ J J =./ Z Z x k k Z F x B x x Z D x B B Z k x z n x x x Z / S S B Z Z B n V D J P P $.;.D / X.K ",
", z m A J J J Y -.B l J A Z x n y.B.=.Z x z k z k Z Z / S Z x x S x Z D / F A S x z k x k k Z / -.z l k k A D U @.P x.;.U J D m ",
"= B C J J A L U @.F z A D Z A x J F Z / S z z k k x Z Z Z F Z x Z S S D / S Z x n k x x F 0 k F B k d 0 k B D D D F x.3.$.G M 0 ",
"O d A &.X.X.T @.U U S A S 0 d Z Z Z Z 5.5.Z B k k x S F S x A F S D S F F F F Z x z A =.F x k x x Z d k l x A n V D _ D L S V i ",
"@ v L T U D 0.U t.5.A Z x S Z Z / Z B F / 5.Z F S x F F x Z S J D J / J / Z F S B B Z Z Z Z Z k A x k n B x S n n V A A Z G V a ",
"$ M G @.G L P $.3.S Z x D F Z Z J Z x Z D F F Z F S Z =.F F Z S J / D F J A A Z B k x S F S Z A F S x n x x B n n B B A D H B f ",
"= z S ^ V D P J } ;.n F F F B Z Z Z Z B J F S Z k Z F S Z Z Z x S F D Z F D F F S x k Z S k x x Z J Z x k k k 0 k z D V J D l a ",
"% z G D Z v S F } J Z Z J / J A / / =.J F Z J Z S Z Z Z A F Z x Z x x F Z Z Z Z Z S F n / Z x Z B x Z B k k k k 0 i n D L G l u ",
"$ z V D D z G T F } / F F F J J J F y.5.{ P h.S x S B x D A A F S Z x F F A / J Z F F A F J J D Z x k x x Z x k 0 0 z A A V k i ",
"= a N } G D D @.=.=.F B F Z F J / 5.J 5.5._ / S Z S x x D B J D F Z Z / / / J / F F A B F / / Z Z x z x Z Z Z x n / Z D A m f u ",
"= M G Q T D G U y.8.D F A A A J J / J J -.) 5.J F S x D F x n x k Z / / / F Z Z A A D F F Z Z Z A Z n n Z Z Z k B F A A V n z i ",
"# z G G L G V @.t.x.J J F D B Z D Z F F { Z S D S x S S =.n z x B S F / A x x Z x x Z F F F B B x Z n Z Z A Z z x / A Z D D a 8 ",
"$ k m n x x B L 7.&.5.F J F Z x S J F S Z k k Z O.J S J J S x n x Z Z F Z Z x x x x x Z Z A A Z Z Z Z x x Z B x l D x S H D f 9 ",
"* v L G x B Z L / J Z A J J F n n x S F F d k F O.F ( D F J Z Z B Z x x x B B k x x k Z D Z B x Z n Z Z x x B z 0 d l l G H x 8 ",
"$ d I m.8.Z D D J A / J D D Z n B z x P 5.) k S Z F Z B B B B Z x Z x x x k Z x x x k x D Z x x Z n k z x x Z z d 9 7 d v x i 9 ",
"+ a J 9.z.J S n Z F F F / D Z Z S S S F F O.5.O./ / D Z Z Z Z B Z B x B x x x x Z x Z x x Z k l Z k 0 0 7 k x z k 9 7 7 a a 9 9 ",
"+ d A T $.B B f.F D U } J J S Z B x S P F ) O.O.) S Z S ;.D Z B k x x x Z x x x A l J n d B x l z k z x n n z 0 d 3 3 9 f 9 6 5 ",
"+ 9 V a.} J D } J J J J J D F A V F S O.E P F ) S S B Z D B B Z x Z z Z Z z x x x A Z B x 0 u k n B n U J n l 0 7 5 r l x u 9 9 ",
"X 8 v Y I Y 9.Y Y ;.U D J U U U Q P F S F z F F J F Z S J D B x Z S Z Z n B Z Z x Z B B x G Z k d n S B D n H L S 9 l B B u 9 , ",
"  5 u V J Y 9.0.0.0.F P } / ;...P P P P R P @._ 3.M.D F 7.D J Z Z Z Z Z Z Z Z x l D L D n D J A V B k 9 d m B V T V G v x a 5 = ",
"  - 9 m S L Q $.7.J D C D L D 0.L G J Y $.L ,.L S R M B V P D P n A D A F J D A V G A V G Q A Q q.L Q l u d d v D L D B M t 5 = ",
"  , 9 z A ....Y L H B x z V L S D G n V D A D D S x D V V x x B n v Z G ( / K G S G G d b V h k B G G N B z B v v V j f f 9 , $ ",
"  : 7 d d V A m V m B i a f l v l f l d i l 9 8 9 6 d l 9 9 f a z 9 v A G D v i f u x a 9 z v v L G A c J v n f i d k d e 3 1 = ",
"  $ $ > > 1 r 8 5 9 r i z i d a l u 8 3 t a t i e z 9 8 6 < 8 6 4 3 3 , > 8 3 < 5 r 1 % , , 5 8 5 > > 6 2 8 5 8 9 6 5 9 e ; = O ",
"  + . . + * * > > > * : > > 4 < > : % - 5 4 4 1 > 3 * % * * = > - @ : : : 3 < , , * 1 , 1 2 4 3 4 2 2 > * * < 6 , : : - % @ + + ",
". . . X X @ > 4 w > = * # * > * @ + + + @ @ @ > * * $ - 6 * X .       . X . . + @ # # $ * # % @ @ + + @ $ @ @ + X @ # @ @ @ + X ",
"i 0 f m v m n m :.i.6.X.G K J A J m V H I Q I I 6.H K I 6.H c : @ : 7 0 t i 8 l v m n v v V v v m l c m A f a z r 9 d r t f u u ",
"/ L u.z.;.7.m.x.F.J.G./ J y.S.y.7.J J G Q Q 7.&.V.z.x...v.T m 1 $ < 0 7 s f z m J 8.&.U ..t.n A D n Z G ;.G D B x n J $.Y G A $.",
"I Y 9.Q ..u.t.x.y.S.v.S.t.5.{ / / / ;.U ..x.m.S./ u.t.T u.u.G 3 $ < 0 0 z v z T 7.X.9.u.u.M.../ q.L ;.t.l.@.P D D D J 3...x.;.$.",
"A } X.Q 7.Y $.u.J D =.y.=./ D D F 5.=.} ;.;...u.Y S.l.0.v.0.A 1 = 7 7 k l D G J $.0.m.F.N.S.l.x.0.} 5.t.P _ F Y S U _ k.7.Y A n ",
"A D J D A F F } 6./ :.A.B.F Z J J } =.D F D G D / F.$.u.7.$.n 5 : 7 f B V U L } 7.} x.0.3.;.y.y.;.} U -.f.;.;.T T $.U t.0.3.G D ",
"J J } J A J J J { / G / J J J Z / J F A z A 7.Y ..F.m.0.} 0.D 9 5 0 M D } } 0.} Y I Q T ;.t.8.7.M.t.Y } L D J ;.3.$.T J A D D U ",
"S D F S S S S P / J / / / F / F F S x F S Z } M.z.G 7.7.7.X.B 9 5 d B } 3.P P J T G J T ..z.7.7.J / / D F F F Z S G t.P Z x z x ",
"B B Z S V x x D F Z F F J / F A S Z Z F x l } } $.A Y x.6.J a 5 < a S $.t.-.,.$.7.T J G V J 6.y.y./ F x x B Z S Z Z _ U k d 0 k ",
"B S x k k x Z Z A Z k J B B A Z x n x S Z B F } T 7.K J H V b 6 > a D ^ t._ P t.9.t.U S / J J t./ A Z B x B Z S k k S k k d 0 z ",
"z x z z z Z x Z J F x x x x A A Z D D D F B D P D J t.Q G A B 8 < d J @.f.O.@.-.G J Q 9.7.J U F J / Z x x Z / S B d k z x k k x ",
"x B x Z x Z F F t.J Z x x Z F Z B Z Z Z D F J / 3.f.f.s.L V M t > l T f.3.T P F U U 7./ ..7.-.U J F F D A A S A Z Z B Z z k S S ",
"x x B S Z F B S / Z / / F / J J Z x Z F x F ( x.@.} ;.;.G D v 9 , f P a.3.R 3.q.D U U / ..J P F J D F J F F / F J F F F Z k D F ",
"d k k k k z x B F Z J J B J J { / D n / F Z F 5.5.P U Q J H c 3 , z P @.3.5.@.D G D D G J G A D Z Z F / F Z S / F S Z x Z k x D ",
"k k d d 0 0 0 k k k Z Z Z J J D Z J Z / F Z F 5.} -.@.$.^ ! f 5 , z Q x.$.} } D L F A Z Z Z F A B Z Z F / J Z / / S S n z x Z ( ",
"x x k 0 0 0 k x x k F F S A S F =.=.J F { =./ :./ / y./ J ! a 5 > v $.$.P -.t.T / / { F A x Z Z x Z F A / F S S F J Z S x k x F ",
"B x k x F x k k Z Z S ( Z Z F Z B.B.:.y.t.J J / J / i.i.0.G l 2 , f T ;.T ;.$.l./ x./ / F x x x x Z J F F Z Z Z Z F x Z x x x F ",
"x x k k A B x x x x F / F Z =./ / { { A.5.J J J / / / 8.q.G f 1 , v } Z.} @.T J G / F x Z F S Z n Z n D S F Z x x x x x Z x x F ",
"x x k x S x k B S k k x Z Z F / / { x.5.5.{ J / F J { 8.T ! l 5 , a L @.P F L D J G F D D Z x Z B n Z z k B Z Z Z x x x x x k x ",
"k x k k k k Z S S Z Z x Z Z Z Z Z =.F / =.5.F J J A / f.k.$.z 9 > u J L L P A J 8./ / A D F A A D B x x Z k Z x F Z x Z x Z k k ",
"k k k 0 0 k x k Z Z Z F A 5./ x x x / F F n A F =.J _ _ F U m i > r ..J V D F D &.&.J D F Z Z Z F Z Z k B k Z / F x x x x x k k ",
"k k 0 k 0 0 0 k k x x x A 5./ / k 0 Z B Z =.{ =.=./ J F G J f h 3 t Q U Z A A J &.u.} D F D D Z x F Z A x x x x x x Z x Z x x k ",
"k k z x k 0 7 k x k Z Z x / / / J n x k Z F 5.y.{ { / } T J V t 2 V v.$.F U J G Y / / A A Z A Z F A Z J A A k k k 0 k Z x k 0 7 ",
"k k k Z 0 0 d Z x k k Z Z F F F A Z Z k x F =.} J P T $.P P M 8 1 f 7.! P F O.D J D P B Z A A J F Z F F Z { Z d 0 0 k x x k k 0 ",
"k x Z Z z x Z J F / F F F F F F F x 0 k x ( J / _ U @.} G V h p 1 a 7.L ! V } N G 3...D D Z J / Z Z F Z / F Z x 0 7 k Z x Z A A ",
"/ =.=./ Z B 5.F F / Z F / F F F F F B z S J J / @._ T L D v a 5 % 8 L T ^ D $.U D G J } / J -.5./ / / Z F Z A Z / / Z Z x S Z F ",
"J / S / / Z J A F F F F Z Z k x k n Z B n x D A L U q.L H N p 6 % d H 0.^ ! ^ 6.P G A U U J P ;.5.{ F Z J J / / y.5.x Z Z x Z x ",
"F B B F F A A J J Z n A Z k Z m m Z x l l n B B F V I L L g p ; # 5 C J 0.} l.l.U A J D D / 8./ / F z F F D Z J J Z A n S Z B x ",
"x x k d Z k l l k 0 z x k x k x k x z z n l l l A G l c j w 6 ; # 6 V D L x.P D G G D D A / J H / { D Z B Z B F A J x z k 0 x x ",
"< 3 7 < 3 3 k z 4 < 7 7 8 l k k k a u n v l 9 7 8 y y f 6 - 1 : @ - < a x f V B z f G v n l z k A n k i i 8 u z B n k 4 < : < < ",
"< $ $ > 3 r m l > < 7 4 < 4 < < 3 > 5 4 8 5 > > $ = > 5 6 : $ = + $ , g 9 8 i y 1 > 9 y r l c u 9 4 9 k k z 3 4 3 r z k 8 0 3 4 "
};
