/* XPM */
static char *f3db0795db374b0b9fcb780ce92b648dJXDLZup8Z8GBrrPR[] = {
/* columns rows colors chars-per-pixel */
"200 38 8 1 ",
"  c #191919",
". c #153439",
"X c #126677",
"o c #1490A7",
"O c #1CB4CA",
"+ c #5BD3D8",
"@ c #84A1BC",
"# c gray85",
/* pixels */
"@@@@@@@@@@@@@@@@@@@@@@@@@@@@@@@@@@@@@@@@@@@@@@@@@@@@@@@@@@@@@@@@@@@@@@@@@@@@@@@@@@@@@@@@@@@@@@@@@@@@@@@@@@@@@@@@@@@@@@@@@@@@@@@@@@@@@@@@@@@@@@@@@@@@@@@@@@@@@@@@@@@@@@@@@@@@@@@@@@@@@@@@@@@@@@@@@@@@@@@@",
"@@@@@@@@@@@@@@@@@@@@@@@@@@@@@@@@@@@@@@@@@@@@@@@@@@@@@@@@@@@@@@@@@@@@@@@@@@@@@@@@@@@@@@@@@@@@@@@@@@@@@@@@@@@@@@@@@@@@@@@@@@@@@@@@@@@@@@@@@@@@@@@@@@@@@@@@@@@@@@@@@@@@@@@@@@@@@@@@@@@@@@@@@@@@@@@@@@@@@@@@",
"@@@@@@@@@@@@@@@@@@@@@@@@@@@@@@@@@@@@@@@@@@@@@@@@@@@@@@@@@@@@@@@@@@@@@@@@@@@@@@@@@@@@@@@@@@@@@@@@@@@@@@@@@@@@@@@@@@@@@@@@@@@@@@@@@@@@@@@@@@@@@@@@@@@@@@@@@@@@@@@@@@@@@@@@@@@@@@@@@@@@@@@@@@@@@@@@@@@@@@@@",
"@@@@@@@@@@@@@@@@@@@@@@@@@@@@@@@@@@@@@@@@@@@@@@@@@@@@@@@@@@@@@@@@@@@@@@@@@@@@@@@@@@@@@@@@@@@@@@@@@@@@@@@@@@@@@@@@@@@@@@@@@@@@@@@@@@@@@@@@@@@@@@@@@@@@@@@@@@@@@@@@@@@@@@@@@@@@@@@@@@@@@@@@@@@@@@@@@@@@@@@@",
"@@@@@@@@@@@@@@@@@@@@@@@@@@@@@@@@@@@@@@@@@@@@@@@@@@@@@@@@@@@@@@@@@@@@@@@@@@@@@@@@@@@@@@@@@@@@@@@@@@@@@@@@@@@@@@@@@@@@@@@@@@@@@@@@@@@@@@@@@@@@@@@@@@@@@@@@@@@@@@@@@@@@@@@@@@@@@@@@@@@@@@@@@@@@@@@@@@@@@@@@",
"@@@@@@@@@@@@@@@@@....................@@@@@@@@@@@@@@@@@@@@@@@@@@@@@......................@@@@@@@@@@@@@@@@@@@@@@@@@@@@@....................@@@@@@@@@@@@@@@@@@@@@@@@@@@@@......................@@@@@@@@@@@@",
"@@@@@@@@@@@@@@..XooooooooooooooooooooX..@@@@@@@@@@@@@@@@@@@@@@@...XooooooooooooooooooooX...@@@@@@@@@@@@@@@@@@@@@@@...XooooooooooooooooooX...@@@@@@@@@@@@@@@@@@@@@@@...XooooooooooooooooooooX...@@@@@@@@@",
"@@@@@@@@@@@@.oOOOOOOOOOOOOOOOOOOOOOOOOOO..@@@@@@@@@@@@@@@@@@@@.XOOOOOOOOOOOOOOOOOOOOOOOOOOo @@@@@@@@@@@@@@@@@@@@..OOOOOOOOOOOOOOOOOOOOOOOOOo..@@@@@@@@@@@@@@@@@@@@.XOOOOOOOOOOOOOOOOOOOOOOOOOOo.@@@@@@@@",
"@@@@@@@@@@@.O..O++++++++++++++++++++++O..X.@@@@@@@@@@@@@@@@@@.X..O++++++++++++++++++++++Oo.O @@@@@@@@@@@@@@@@@@.oXO++++++++++++++++++++++++XXo.@@@@@@@@@@@@@@@@@@ O..O++++++++++++++++++++++O..X.@@@@@@@",
"@@@@@@@@@@.O.....O+################+O.....X.@@@@@@@@@@@@@@@@.X....XO+################+OX....O.@@@@@@@@@@@@@@@@.OXX..O+##################+X...Xo.@@@@@@@@@@@@@@@@.O....XO+################+O.....X.@@@@@@",
"@@@@@@@@@.O..XXXX..XXoXX.........XXX.......X.@@@@@@@@@@@@@@.o...XXXXX...XooX...........Xo....O.@@@@@@@@@@@@@@.OXXXXXXXXXOOO++++++++OOXXXXXXXX.Xo.@@@@@@@@@@@@@@.O....oXX....XXXX.................o.@@@@@",
"@@@@@@@@.O.XXXooo.X+++++++++++++++OXXX......X.@@@@@@@@@@@@.o..XXXoooXX.X+++++++++++OOOOOOo....O.@@@@@@@@@@@@.OXXXXooOOOoX......ooXXXoooooooooX.Xo.@@@@@@@@@@@@.O.X..oXXXXooooooooooXXX.ooooooX....o.@@@@",
"@@@@@@@.OXXooOooXX+#+++++++++++++++OXXXX.....X.@@@@@@@@@@.o.XXXooooooXXo+#+++++++++++OOOOOo....O.@@@@@@@@@@.+XXXXoOOOOOOoXX....#+++++OOOoooooooXXo.@@@@@@@@@@.O.XX.oOXXXooOOOOOOOOOOoXX++OOOooooX..o.@@@",
"@@@@@@.OoooOOOooX+++++++++++++++++++OXXXXX....X.@@@@@@@@.oXXooooooooOOX+#++++++++++++++OOOOo.XX.O.@@@@@@@@.+OooOOOOOOOOOOoXX...#+++++++OOOoooooooXo.@@@@@@@@.OXXX.o+OOOOOOOOOOOOOOOOOoXO++OOOOooooX.o.@@",
"@@@@@  .oOOOOOoXO+#++++++++++++++++++OXXXXXXXXX  @@@@@@  XOOooooooOOOOo+#++++++++++++++++OOOoXXX.  @@@@@@  o++++OOOOOOOOOOoXX..#+++++++++OOOoooO+++. @@@@@@  .XXXo+++++++++++++++++OOOoX++++OOOOooooX  @",
"@@@@@ .  XoOOOoO+#++++++++++++++++++++OXXXooX  . @@@@@@ .  XO+++OOOOOo+#+++++++++++++++++++OOoX. . @@@@@@ . .X+++++++OOOOOOoXX.#+++++++++++OO+++OX.. @@@@@@ . .Xo+++++++++++++++++++OOOoO+++++OOOOX  . @",
"@@@@@@ .....oOX+##+++++++++++++++++++++OooX.... @@@@@@@@ ..  .XO++++Oo+#++++++++++++++++++++++... @@@@@@@@ ... XoO++++++OOOOoXX#+++++++++++++OO.... @@@@@@@@ .. ++#######++++++++++++OOOo++++++X.  .. @@",
"@@@@@@@ ......+####################+++++...... @@@@@@@@@@ .......XOOo+###############++++OXX.... @@@@@@@@@@ .......XoOO++++OOOX#######+++OOXX..... @@@@@@@@@@ ....XXOO++++#######+++++OOOo++X....... @@@",
"@@@@@@@@ ......XooooooooooooooooooooooX...... @@@@@@@@@@@@ .........XOOOOOOOOOOOOOOooooXXXXXXX. @@@@@@@@@@@@ ..........XXXooOOO#++++OOOXX........ @@@@@@@@@@@@ .XooooooooooOOOOOOOOOXXXXXX......... @@@@",
"@@@@@@@@@ ......XXXXXXXXXXXXXXXXXXXXXXX..... @@@@@@@@@@@@@@ .........ooXXXXXXXXXXXXXX......XX. @@@@@@@@@@@@@@ ..............XXXOOOoXX........... @@@@@@@@@@@@@@ .ooXX....XXXXXXXXXXXXXXXX......... @@@@@",
"@@@@@@@@@@ X....XXX................XXo..... @@@@@@@@@@@@@@@@ .........oXX.................XX. @@@@@@@@@@@@@@@@ ................o..............X @@@@@@@@@@@@@@@@ .ooXX................XX......... @@@@@@",
"@@@@@@@@@@@ X....XXX..............XXo..... @@@@@@@@@@@@@@@@@@ X.......ooXX...............Xo. @@@@@@@@@@@@@@@@@@ ...XXXXXXXXXXXXO.............X @@@@@@@@@@@@@@@@@@ .OoXX..............XXX........ @@@@@@@",
"@@@@@@@@@@@@ X...XXXX..XXXXXXXX..XXoX...X @@@@@@@@@@@@@@@@@@@@ X.......OXX..XXXXXXXX....Xo. @@@@@@@@@@@@@@@@@@@@ X..XXXXXXXXXXXO............X @@@@@@@@@@@@@@@@@@@@ XOoXX..XXXXXXXX..XXo........ @@@@@@@@",
"@@@@@@@@@@@@@ X...oXXXXXXXXXXXXXXXoo...X @@@@@@@@@@@@@@@@@@@@@@ X.XX...oOXX.XXXXXXXX...Xo. @@@@@@@@@@@@@@@@@@@@@@.X.XXXXXXXXXXXO....XXXXX..o.@@@@@@@@@@@@@@@@@@@@@@ XOoXX.XXXXXXXX.XXXO...XX.X @@@@@@@@@",
"@@@@@@@@@@@@@@ X...OXXXXXXXXXXXXXoOX..X @@@@@@@@@@@@@@@@@@@@@@@@ XXXX..XOXXXXXXXXXXX..XO. @@@@@@@@@@@@@@@@@@@@@@@@.oXXXXXXXXXXX+...XXXXXX.o.@@@@@@@@@@@@@@@@@@@@@@@@ XOoXXXXXXXXXXXXXoX..XXXX @@@@@@@@@@",
"@@@@@@@@@@@@@@@ X..XoXXXXXXXXXXXoOX..X @@@@@@@@@@@@@@@@@@@@@@@@@@ oXXX..OOXXXoooooXX.XO. @@@@@@@@@@@@@@@@@@@@@@@@@@.oXXXXXXXXXX+..XXXXXXXo.@@@@@@@@@@@@@@@@@@@@@@@@@@.XOoXXXXXXXXXXXXO..XXXo @@@@@@@@@@@",
"@@@@@@@@@@@@@@@@ X..OoXXXXooXXXoOO..X @@@@@@@@@@@@@@@@@@@@@@@@@@@@.OXXX.X+XXoooooooXOOX @@@@@@@@@@@@@@@@@@@@@@@@@@@@.OXXXXXXXXo+.XXXXooXO.@@@@@@@@@@@@@@@@@@@@@@@@@@@@.XOoXXXXXXXXXXoX.XXXo.@@@@@@@@@@@@",
"@@@@@@@@@@@@@@@@@ X..+OXXooooXOOO..X @@@@@@@@@@@@@@@@@@@@@@@@@@@@@@.OXX..oOXoooooooOOX @@@@@@@@@@@@@@@@@@@@@@@@@@@@@@.O.XXXXXoo+XXXooooO.@@@@@@@@@@@@@@@@@@@@@@@@@@@@@@.XOoXXooooXXOO.XXXo.@@@@@@@@@@@@@",
"@@@@@@@@@@@@@@@@@@ ..X+OXooooOOOX.X @@@@@@@@@@@@@@@@@@@@@@@@@@@@@@@@.OXX.X+XOoooooOOX @@@@@@@@@@@@@@@@@@@@@@@@@@@@@@@@.O.XXXoOo+XXooooO.@@@@@@@@@@@@@@@@@@@@@@@@@@@@@@@@.XOoXooooXX+X.XXo.@@@@@@@@@@@@@@",
"@@@@@@@@@@@@@@@@@@@ ..OOOoooOOOO.. @@@@@@@@@@@@@@@@@@@@@@@@@@@@@@@@@@.OXX.OOOOOOOOOX @@@@@@@@@@@@@@@@@@@@@@@@@@@@@@@@@@.+.XoOOo+XoOOOO.@@@@@@@@@@@@@@@@@@@@@@@@@@@@@@@@@@.XOOooooXO+.XXo.@@@@@@@@@@@@@@@",
"@@@@@@@@@@@@@@@@@@@@ ..+OOOOO++.. @@@@@@@@@@@@@@@@@@@@@@@@@@@@@@@@@@@@.OX.o+OOOOO+X @@@@@@@@@@@@@@@@@@@@@@@@@@@@@@@@@@@@.+oOOOo+oOOOO.@@@@@@@@@@@@@@@@@@@@@@@@@@@@@@@@@@@@.XOOoooO+o.Xo.@@@@@@@@@@@@@@@@",
"@@@@@@@@@@@@@@@@@@@@@ .X++OO++X. @@@@@@@@@@@@@@@@@@@@@@@@@@@@@@@@@@@@@@.OX.++OOO+o @@@@@@@@@@@@@@@@@@@@@@@@@@@@@@@@@@@@@@.+OO+o+OO+O.@@@@@@@@@@@@@@@@@@@@@@@@@@@@@@@@@@@@@@.oOOOO++.Xo.@@@@@@@@@@@@@@@@@",
"@@@@@@@@@@@@@@@@@@@@@@ .O++++O. @@@@@@@@@@@@@@@@@@@@@@@@@@@@@@@@@@@@@@@@.o.O++++o @@@@@@@@@@@@@@@@@@@@@@@@@@@@@@@@@@@@@@@@.+O+o+O+O.@@@@@@@@@@@@@@@@@@@@@@@@@@@@@@@@@@@@@@@@.o++++O.o.@@@@@@@@@@@@@@@@@@",
"@@@@@@@@@@@@@@@@@@@@@@@ .O++O. @@@@@@@@@@@@@@@@@@@@@@@@@@@@@@@@@@@@@@@@@@.X.+++o @@@@@@@@@@@@@@@@@@@@@@@@@@@@@@@@@@@@@@@@@@.++o++O.@@@@@@@@@@@@@@@@@@@@@@@@@@@@@@@@@@@@@@@@@@.o+++.X.@@@@@@@@@@@@@@@@@@@",
"@@@@@@@@@@@@@@@@@@@@@@@@ .++. @@@@@@@@@@@@@@@@@@@@@@@@@@@@@@@@@@@@@@@@@@@@ .X+o @@@@@@@@@@@@@@@@@@@@@@@@@@@@@@@@@@@@@@@@@@@@.+o+O.@@@@@@@@@@@@@@@@@@@@@@@@@@@@@@@@@@@@@@@@@@@@.o+X. @@@@@@@@@@@@@@@@@@@@",
"@@@@@@@@@@@@@@@@@@@@@@@@@ XX @@@@@@@@@@@@@@@@@@@@@@@@@@@@@@@@@@@@@@@@@@@@@@ .O @@@@@@@@@@@@@@@@@@@@@@@@@@@@@@@@@@@@@@@@@@@@@@.oX.@@@@@@@@@@@@@@@@@@@@@@@@@@@@@@@@@@@@@@@@@@@@@@.O. @@@@@@@@@@@@@@@@@@@@@",
"@@@@@@@@@@@@@@@@@@@@@@@@@@  @@@@@@@@@@@@@@@@@@@@@@@@@@@@@@@@@@@@@@@@@@@@@@@@  @@@@@@@@@@@@@@@@@@@@@@@@@@@@@@@@@@@@@@@@@@@@@@@@  @@@@@@@@@@@@@@@@@@@@@@@@@@@@@@@@@@@@@@@@@@@@@@@@  @@@@@@@@@@@@@@@@@@@@@@",
"@@@@@@@@@@@@@@@@@@@@@@@@@@@@@@@@@@@@@@@@@@@@@@@@@@@@@@@@@@@@@@@@@@@@@@@@@@@@@@@@@@@@@@@@@@@@@@@@@@@@@@@@@@@@@@@@@@@@@@@@@@@@@@@@@@@@@@@@@@@@@@@@@@@@@@@@@@@@@@@@@@@@@@@@@@@@@@@@@@@@@@@@@@@@@@@@@@@@@@@@"
};
