/* XPM */
static char *bedd4943fe834d398ecbfef2dfd87f3byfUirrhTsuq29sR1[] = {
/* columns rows colors chars-per-pixel */
"64 64 174 2 ",
"   c #967E51",
".  c #9D8356",
"X  c #9F8658",
"o  c #A18557",
"O  c #A18659",
"+  c #A58B5D",
"@  c #A98E5F",
"#  c #A9905F",
"$  c #A78E60",
"%  c #A98E61",
"&  c #AE9363",
"*  c #AC9262",
"=  c #AE9463",
"-  c #AC9064",
";  c #AE9164",
":  c #AC9264",
">  c #AD9264",
",  c #AC9364",
"<  c #AD9364",
"1  c #AD9265",
"2  c #AD9365",
"3  c #AE9264",
"4  c #AE9364",
"5  c #AE9265",
"6  c #AD9366",
"7  c #AC9464",
"8  c #AD9464",
"9  c #AD9564",
"0  c #AC9465",
"q  c #AD9465",
"w  c #AD9565",
"e  c #AE9464",
"r  c #AE9564",
"t  c #AF9564",
"y  c #AE9465",
"u  c #AF9465",
"i  c #AF9565",
"p  c #AF9665",
"a  c #AF9765",
"s  c #AD9466",
"d  c #AD9566",
"f  c #AF9466",
"g  c #AE9566",
"h  c #AF9566",
"j  c #AE9467",
"k  c #AE9666",
"l  c #AF9666",
"z  c #AF9766",
"x  c #AF9667",
"c  c #AC9263",
"v  c #AF9867",
"b  c #AF9568",
"n  c #AE9569",
"m  c #AE9668",
"M  c #AF9668",
"N  c #AF976A",
"B  c #AF9668",
"V  c #B29663",
"C  c #B09464",
"Z  c #B09564",
"A  c #B09465",
"S  c #B09565",
"D  c #B19565",
"F  c #B09665",
"G  c #B09765",
"H  c #B19466",
"J  c #B09566",
"K  c #B19566",
"L  c #B09666",
"P  c #B09766",
"I  c #B09667",
"U  c #B19667",
"Y  c #B09767",
"T  c #B29666",
"R  c #B39766",
"E  c #B29667",
"W  c #B29767",
"Q  c #B39767",
"!  c #B19665",
"~  c #B19966",
"^  c #B29967",
"/  c #B29866",
"(  c #B19568",
")  c #B09668",
"_  c #B19668",
"`  c #B09768",
"'  c #B19768",
"]  c #B09669",
"[  c #B09769",
"{  c #B19769",
"}  c #B29768",
"|  c #B1976A",
" . c #B1976B",
".. c #B2976A",
"X. c #B19768",
"o. c #B09868",
"O. c #B19868",
"+. c #B19968",
"@. c #B09869",
"#. c #B19869",
"$. c #B29868",
"%. c #B29968",
"&. c #B39968",
"*. c #B29869",
"=. c #B39969",
"-. c #B29A68",
";. c #B39B69",
":. c #B1986A",
">. c #B2986A",
",. c #B3986A",
"<. c #B3996A",
"1. c #B3986B",
"2. c #B2996B",
"3. c #B3996B",
"4. c #B39A6A",
"5. c #B39B6B",
"6. c #B49A69",
"7. c #B59A69",
"8. c #B4986A",
"9. c #B4996A",
"0. c #B4986B",
"q. c #B4996B",
"w. c #B5996B",
"e. c #B49A6A",
"r. c #B49B6A",
"t. c #B49A6B",
"y. c #B49B6B",
"u. c #B59B6B",
"i. c #B69B6A",
"p. c #B69A6B",
"a. c #B59C6B",
"s. c #B39A6C",
"d. c #B39B6C",
"f. c #B39A6D",
"g. c #B4996C",
"h. c #B49A6C",
"j. c #B49B6C",
"k. c #B59A6D",
"l. c #B49B6D",
"z. c #B59B6D",
"x. c #B79A6D",
"c. c #B79B6D",
"v. c #B49C6C",
"b. c #B49C6D",
"n. c #B59C6D",
"m. c #B69C6D",
"M. c #B79C6D",
"N. c #B69D6D",
"B. c #B79D6D",
"V. c #B69C6E",
"C. c #B69D6E",
"Z. c #B79D6E",
"A. c #B69D6F",
"S. c #B79D6F",
"D. c #B49A6A",
"F. c #B89C6D",
"G. c #B89D6F",
"H. c #B89E6E",
"J. c #B89E6F",
"K. c #B99E6F",
"L. c #B99F6F",
"P. c #BA9F6E",
"I. c #BA9E6F",
"U. c #B89D6D",
"Y. c #B99F70",
"T. c #BB9F70",
"R. c #B99F70",
"E. c #BAA06E",
"W. c #BCA172",
"Q. c #BEA273",
"!. c #BEA475",
"~. c #BCA171",
"^. c #C0A677",
"/. c #C2A879",
/* pixels */
", $ , F.F.Y.~.4.* + + L ( r.( l.H L + % + + + # # L ~ 7.a.r.r.% % % + % 4. .l.Y.( m % % , ( $ $ * # + X % ( a m ( q l.l.r.l., , ",
"r.q r.M.F.M.l., + * ( r.4.+ i.r.L , , , # + @ @ a # ~ 7 ~ Z , , @ L , q m ( l.0., q q , * 4.q X X + + * q 4.q d.l.4.F.( F.m , , ",
"m * F.!.Q.Q.r.% + + q L R @ % R r.F., , L @ @ , # Z Z Z a , * + X % % m l.( ( , , m o.4.q d.$ X + X + $ q ( ( d.M.m $ H Y.% + % ",
"* q J.M.F.F., % + $ % @ @ o @ R L ( F.l.H r.Z , # @ , 7 a # + O + $ % (  .0.m m 4.M.d.;.4.d.% + X X $ a ( d.l.( o., , , H % % , ",
"q r.4.L r.r.L , @ @ @ o o @ R Q 0.( F.H H  ., % @ + % + a % * + $ $ $ - % % % 0.N 4.l.4.- j % O X $ $ q 4.4. .l., + X + % C r.L ",
"4.q a a 4.L r.r.@ @ @ @ @ R T.F.F.l.0.% % H % $ + @ + + @ + * $ %   $ $ % % %  .d.l.l.(  .- $ $ $ 7 * ( d.( ( % . X $ + ( q 4.( ",
"q * $ q r.r.L , @ + @ @ H Q T.; F.Q ( ( ( ( % O + + $ % @ @ O + O   O $ % % % j m ( d.d. .( $ X $ m ( l.q 4.$ $ . X O # * * r.4.",
", * a 4.r., C @ o @ @ @ H p.L H l.( ( % $ O $ $ + O + * + + O .   + $ % - % ( % ( ,  .d., % % % m d.( , , % + + X   X X a @ a q ",
"r.a.( l.r.C + @ # o @ % R r.% H ( ( q + + % % % + $ + $ O . O   % % ( % ( q % L , , , H $ X $ % q L d.o.$ v $ X . X X X # 7 $ o.",
"E.E.l.( L % @ @ & @ @ r.F.Q H @ H , * + % , % + % - $ + O + o O % ( ( ( , ( q , % % + % $ $ $ % ( ( , o.7 $ v $ X X + + , * * ;.",
"/.Q.T.F.H H , H @ V V H Q , % @ $ + $ $ % ( , % + ; $ + % $ O % l.F.0.l.Q ( , , % $ + O $ $ ( 4.~ L v , $ $ $ X X $ 7 q q a M.!.",
"E.F.i.i.H % , ( V U.Q F.l.( L , $ + + % % % H % ; ; $ + $ o + j l.L L , L , % $ $ O O $ , $ , 4.4.d.7 $ a 7 X . + $ o.a 4.d.!.!.",
"4.F.F.R L L ( L ( l.L 4.L L L q + + + % ; % ; ; - ; ; % O o O j % % ( ( % , % O o o $ $ $ , q 4.d.( , , 7 X $ $ * L ( H 4.N W.J.",
"( l.l.Q.L 4.L 4.r.r.q ~ L 4.L * $ % % , ; % ; ; H ; % % o o %  .( % % H Q % O O X $ $ , j , m ( ( q , * X . X $ * q 4.0.M.E.!.W.",
"F.F.F.Q.l.( 4.( ( L a Z a 4.( q @ + $ H ; % ; ; ; % % + O O H , ( , , % ( + X O $ $ - % $ , $ ( q , + + + + * $ o.q , (  .Q.J.W.",
"r.P.Q.P.0.r.F.4.( 4.L , * q q * % , % % ; H ; ; H % % + O % , , ( % H , % + o . $ % m $ m , , % , , + . + $ * * ( 4.0.0., Q l.Y.",
"F.P.Q.F.Q.F.Q.4.( L ~ a L L C + @ % ( ( % % % ( H , % % + @ 0.( , j m - $ . . X * ( 4.L ( % j , , , % $ @ C + % ( % p.V @ p.i.p.",
"p.I.Q.M.r.F.E.F.r.r.4.L 4.L % % % H ; % % % % Q H + % O % ( l.( ( , j - $ O + # q 4.r.( ( (  .( % % % % % Z , C R % V O + Q H p.",
"I.F.Q.F.a.E.;.F.4.~ 4.L L , , % H ( ( H % ( Q ( H , $ + + % 0.,  . .- m $ + $ * ~ l.r., l.d.( j % % $ % H L L @ C ; @ @ @ H C i.",
"F.Q r.l.E.a.M.a.4.L ~ 4.a @ H L Q ( , % ( R.0.Q ( + + + ( 0.0. .d.( $ $ X $ % r.r.r.d.( (  .( % % $ % % L V C % @ o O @ @ H Q F.",
"a a.o.M.~.E.4.;.r.4.( L , , (  .r.L , (  .F.l.r.~ + O @ , d.d.m  .% q $ + + + ( 4.r.L L , , % $ % $ $ $ $ ; L % o O o + V Q p.i.",
"o.M.o.;.E.E.M.a F.L L L , l.l.l. ., L ( Y.l.r., $ O + , (  .l.d. ., , $ + @ q M.r.L L , $ , , $ $ % - - % $ L ( @ @ @ R Q U.p.F.",
"o.o.+ o.4.* o.q L % L H l.l.( l.L ( r.4.M.F.( , o + % ( ( l.m q $ , $ X + * Z H R C V , q $ $ X + $ $ % ; H 0.H & @ H i.p.r.H C ",
"a.4.7 * d.7 @ a , % H Q Y.0. .( ( l.( r.l.( , + o + q , 4.( , % % m , + O @ % L L R C @ $ * O $ $ % % % - H 0.( C @ H i.F.R , H ",
";., @ + * * q * + , C H ( L 0.0.Y.M., L ;.v # X + + v 7 @ a + * m m % + O + ( l.d.l.L ( % % X $ % , % $ , d.( % & V % i.F.L R Q ",
"q a + + * % , @ @ + O @ H l.Y.T.r.( , , 9 $ X + + $ a 9 a L * a , , % O + m r., ( d.L 4.q + # $ H , + $ %  .( % H H , L i.L Q L ",
"$ # + + % # q q , + o + % 0.F.l.L % , % $ $ # X + 7 9 9 L q L % , $ + O + L ( L ( ( q o.q q q 7 , % . $ %  .( j % H R r.L ~ , L ",
"X + $ * , * , q + O + % % ( Q r.l.r.L % # X X $ + 7 a v q L , , @ O $ % , d.F.( ( 4., ( q 7 q * % $   $ (  .( , % , , R ~ 7.L @ ",
"+ + , , q q d.% + + , m ( 4.( Q L % + + + X X X # a ;.* q d.r., $ + $ , j ( Y.q q q L q 4.q , , + % O % L ( ( ( L L L 4.4.4., @ ",
"+ $ m m 4.M.q $ + $ q d.d.4.r.% , + + X X + # $ 9 a 4.;.4.d., % $ $ % (  .l.~.( 4.% * % ( % % % % + + , l.L 4.( ( l.l.( L a # # ",
"7 v v o.d.4., $ % ( M.d.% l.4., @ + + + X X # # # v 7 ;.q , L % ( , ( d. .Y.l., 4.q a * M.q + O % @ , ( r.( F.M.r.F.L r.* + + q ",
"$ o.d.o.M.m $ X %  .d.M.% , q L L O O + X + 7 7 -.-.v -.q , @ O j %  .Y.0.l.j , 4.q ~ q 4.* O + + % , H ( l.r.F.( % L 4.O X X # ",
"* ( d.l.( , $ + , 4.q 4., q * * + + o O + L q q l.l. . .% $ O $ % m M.J.W.A.N d.i.r.r.r.i.; % + + % H x.0.F.Q Q L L % @ o O + + ",
"$ , , m m % + * o.;.;.;.q 7 $ % X X . X * ~ L L ( F.( % % $ % * % , ( ( J.d.d.N Z C L L Q ; ( % ; H ; 0.F.Q ( H C % @ o O + + + ",
"% * , $ * $ + ( 4.M.;.q q * % $ X . X + q 4.( l.l.l.$ $ %  .( * ( q L  .m N J.N p.C & & @ + % ; H l.0.H H ; ; % @ + O O + % $ , ",
"$ + + $ $ + % 4.M.M.M.4.* * @ @ X X + , ~ r.4.l.q * O $ % , q 4.l.q , , q d.d.q & @ @ + + @ H H % 0.Q H 0.Q ; % + O + @ , * , q ",
"* + + $ @ + % ( o.M.E.4.L , @ + + + , 4.4.q q L + . X + * $ q a L L % a 4.L r., @ o @ @ % Q 0.Q l.Q ( % % H O $ + + + * L * * * ",
"+ + * * @ @ + H 4.4.d.4.4.( + + + q , L 4.a , + . . + $ $ # ~ a Z , , L ~ 4.L , @ @ @ @ ; R.F.H l.H H % % % $ $ + % + # + + + + ",
"+ + * 7 % % , , ( q d.d., L + + , l.L L 7 q + X . . . X * * ~ L # * L L 7.C C @ o + @ % Q 0., Q F.H H % - $ O O + + $ # $ + + X ",
"@ * 4.q % H % L L L ( 4.@ + % + H Q Q L * 7 $ X .   . X * @ , q a L L F.R @ @ + @ @ @ % ( Q @ L ( , % $ $ + % % O + + # + O # # ",
"7 , x.H C R @ H L @ @ , + O + * , , L L @ * * . . X . X # 7 q l.Q l.Q F.H @ O , % O R p.r.L @ , ; ; @ + @ ; H ; $ * + + o   ; H ",
", j H % , L R , , @ @ + @ @ ( 4.( L , , * + 7 X X + + $ 7 d.( l.( l.l.0.; ; % % @ % H H L , @ @ ; @ + + @ H @   $ * + + o + $ $ ",
"% % % ; L L C H a + + O @ % q ( 4.L a a 9 7 + X o # a H o.( d.l...( 0.( H % , , q ( Q Q L L @ * O O @ @ ; V @ @ + H % + ; - $ % ",
"@ @ % % , % @ @ + O O O + H q r.r.L a + 9 # + X @ a ( L 4.M.( H % H H % , % H ( M.M.( F.L ~ q % o + + ; ; @ ; ; % % @ @ %   +   ",
"o o @ % ; ; @ @ o o O # @ , , L ~ q 7 7 # X X # , a L ( 0.T.H @ 0.% % % H H Q Q ~ 4.L L , 7.C % + + % H @ ; ; @ ; ; H H   @   ; ",
"@ % ; @ @ ; + o O o + * , L , ~ q * * * + X X # C L , L H ; % C 0.H  .Q % H , Q r., Z L , 4., , @ % % % V @ ; ; H H ; H   @ @ ; ",
"% % ; ; & @ o o o # , , % % @ * q L # X + $ a 7 L 4.( H Q ; C C 0., 0.l.l.0.l., L % R , L L , # + @ + , ; ; ; ; ; @ @   @   @ ; ",
"; ; V ; @ @ O   O % Z Z % , L C % , + X + * # # H H Q H % % @ 7.( 0.Q F.F.Q F.L L L Z % , C @ @ @ Z % , H ; @ ; H ; ; ;   ; H ; ",
"Q Q L @ , O . X + q r.L Z H , , H % % % , C @ C R @ V @ o o & 7.7.i.U.U.r.F.r.r.L ~ , a ( H % % , C H L % % % H H ; ; % % % H H ",
"Q ( , , + + X + a L r.L r.L Q ( % % H % , R C @ & ; ; @ @ @ & V U.U.a.a.a.r.M.r.L r.Z q ( ; % % , ; % @ % % % Q H + % o @ H H x.",
"r.L , C * $ @ @ , ~ F.a L r.( , H ; % H R C @ @ & @ @ @ @ V V P.U.i.U.7.F.a.r.l.~ L L 4.L H H H H H L ; % H Q ( H H % + % H x.p.",
"F.L R L @ + @ , a.U.7.7.L ( L ( % % + % , C V @ o o o o @ & L i.E.E.U.E.E.r.~ r.L L ( L , * ( 0.( Q ; ; ( F.F.Q Q % + % 0.Q 0.F.",
"l.L ~ ( * + @ , V U.7.V L , % % % + % % + + Z Z + o @ & V V Q P.E.E.E.E.F.F.4.a.7.~ L Q H (  .Q l.H , ( Q F.i.F.R + + @ ( l.F.F.",
"( , q , $ @ @ i.a.V 7.L @ C H % + + % % % * Z L & @ ; Q p.p.P.i.i.7.7.U.r.~ r.L ~ % L ( ( l.l.l.4.% L ( Y.F.r.L @ + + H ( Q r.( ",
"( q m + O # a Z ~ Z Z V H L @ O O + @ @ % R 4.L & @ & U.Q p.R F.M.4.~ U.a @ L L % @ L ( k.k.0.l.L ( r.r.F.F.r., O + @ L l.0.l.Q ",
"q % * * # + # , R ~ R @ , % + O @ @ % @ , L ( L & & V R U.p.Q r.;.V a Z L Z , @ @ C L F.T.0.0.H ( l.Q r.i.r., @ o @ a H ( r.( ( ",
"# + + + + @ % F.i.U.r.L H @ + + # , % + @ 4.q % C L , L ( 4.U.~ q q # @ # @ # @ @ ; V p.Q Q 0.0.P.U., V a.V V + + + V a # Z a # ",
"# + @ # @ % r.R Z U.L r.L , + * , a # O + , ( q L L L L L 4.~ ~ a # # @ Z a C @ % @ O % H 0.T.T.r.L C , Z # + + + a L ~ a q a , ",
"# # @ a + , r.H L L L Z , a L a a # o . @ ( 4.m , L L C ~ ~ Z @ , # @ # V # & Z ; @   @ ; p.F.F.R C Z , # @ + + + Z V L Z Z @ # ",
"V # C C % R F.F.7.R L Z ~ a * 7 a # o o * ( ( 4.L % , L 4.4.a Z # a a Z C @ # Z % O O % % Q 0.Q F.L ~ # + + o + @ # V ~ L 7.L # ",
"~ a L L Q Q F.L L Z , + # Z ~ r.r., + + % , , % C H L L l.~ L , , L * H L R r., + + % 0.Q l.r.r.L % % @ + X + + @ C i., V r.~ H ",
"L * , , L r.P.F.a.L @ o @ @ R r.R # + @ % @ % , @ # r.4.~ ~ Z L * , $ * % , R , % % H Q  .Q r.r.H % + . o + # # # , R ~ ~ ~ r., ",
", + % L L F.l.L r., + + % % L Q Z ~ q L % @ + O * , q r.r.L L a , @ O % , ( r.F.H , H , Q 4., L , @ +   + @ , , @ , * , L 4.q L ",
", + # L r.F.i.F., @ + , R L r.L 4.L * % + + X + + , ~ F., L r.( , @ + + H ( Q l., H , H , d.L a , + @ o + , , q , a ~ 4.~ r.r.a "
};
